<?xml version="1.0" standalone="no"?>
<!DOCTYPE svg PUBLIC "-//W3C//DTD SVG 1.1//EN" "http://www.w3.org/Graphics/SVG/1.1/DTD/svg11.dtd" >
<svg>
<metadata>
Created by FontForge 20110222 at Wed Dec 24 04:19:37 2014
 By deploy user
(c) 1990, 2002 Adobe Systems Incorporated. All rights reserved.
</metadata>
<defs>
<font id="HelveticaNeueLTStd-MdCn" horiz-adv-x="222" >
  <font-face 
    font-family="HelveticaNeueLT Std Med Cn"
    font-weight="500"
    font-stretch="condensed"
    units-per-em="1000"
    panose-1="2 11 6 6 3 5 2 3 2 4"
    ascent="714"
    descent="-286"
    x-height="538"
    cap-height="714"
    bbox="-164 -216 1031 951"
    underline-thickness="50"
    underline-position="-50"
    unicode-range="U+0020-FB02"
  />
<missing-glyph horiz-adv-x="500" 
d="M0 0v700h500v-700h-500zM250 395l170 255h-340zM280 350l170 -255v510zM80 50h340l-170 255zM50 605v-510l170 255z" />
    <glyph glyph-name="f_i" unicode="fi" horiz-adv-x="500" 
d="M335 0v538h108v-538h-108zM335 614v108h108v-108h-108zM85 0v458h-75v80h75v50q0 74 34 104t103 30q35 0 59 -3v-83h-30q-58 0 -58 -51v-47h88v-80h-88v-458h-108z" />
    <glyph glyph-name="f_l" unicode="fl" horiz-adv-x="500" 
d="M335 0v714h108v-714h-108zM85 0v458h-75v80h75v50q0 74 34 104t103 30q35 0 59 -3v-83h-30q-58 0 -58 -51v-47h88v-80h-88v-458h-108z" />
    <glyph glyph-name=".notdef" horiz-adv-x="500" 
d="M0 0v700h500v-700h-500zM250 395l170 255h-340zM280 350l170 -255v510zM80 50h340l-170 255zM50 605v-510l170 255z" />
    <glyph glyph-name=".null" horiz-adv-x="0" 
 />
    <glyph glyph-name="nonmarkingreturn" horiz-adv-x="333" 
 />
    <glyph glyph-name="space" unicode=" " horiz-adv-x="240" 
 />
    <glyph glyph-name="exclam" unicode="!" horiz-adv-x="278" 
d="M99 192l-17 296v226h114v-226l-17 -296h-80zM82 0v114h114v-114h-114z" />
    <glyph glyph-name="quotedbl" unicode="&#x22;" horiz-adv-x="426" 
d="M264 428v286h86v-286h-86zM76 428v286h86v-286h-86z" />
    <glyph glyph-name="numbersign" unicode="#" horiz-adv-x="480" 
d="M177 274h106l20 146h-106zM-3 200v74h97l20 146h-88v74h98l28 200h83l-28 -200h106l28 200h83l-28 -200h87v-74h-97l-20 -146h88v-74h-98l-28 -200h-83l28 200h-106l-28 -200h-83l28 200h-87z" />
    <glyph glyph-name="dollar" unicode="$" horiz-adv-x="480" 
d="M260 287v-215q43 6 66.5 35t23.5 65q0 48 -21.5 74.5t-68.5 40.5zM216 418v204q-33 -3 -54.5 -29t-21.5 -71q0 -70 76 -104zM216 -100v86q-200 11 -200 212v16h114v-16q0 -57 20 -87.5t66 -38.5v232l-41 15q-79 29 -114 73.5t-35 119.5q0 85 54.5 140.5t135.5 55.5v70h44
v-70q44 0 78 -12.5t54.5 -31.5t34 -44.5t18.5 -49t5 -46.5v-14h-114v14q0 90 -76 98v-221l63 -22q73 -27 107 -70t34 -114q0 -100 -53.5 -152t-150.5 -57v-86h-44z" />
    <glyph glyph-name="percent" unicode="%" horiz-adv-x="759" 
d="M173 646q-30 0 -40.5 -29t-10.5 -101t10.5 -101t40.5 -29t40.5 29t10.5 101t-10.5 101t-40.5 29zM497 708h77l-319 -722h-75zM586 308q-30 0 -40.5 -29t-10.5 -101t10.5 -101t40.5 -29t40.5 29t10.5 101t-10.5 101t-40.5 29zM173 708q65 0 101 -43.5t36 -148.5
t-36 -148.5t-101 -43.5t-101 43.5t-36 148.5t36 148.5t101 43.5zM586 370q65 0 101 -43.5t36 -148.5t-36 -148.5t-101 -43.5t-101 43.5t-36 148.5t36 148.5t101 43.5z" />
    <glyph glyph-name="ampersand" unicode="&#x26;" horiz-adv-x="574" 
d="M296 392l125 -176q28 46 28 109v14h90v-9q0 -39 -14 -93.5t-47 -100.5l97 -136h-121l-43 61q-82 -75 -180 -75q-58 0 -101.5 19.5t-66 51t-32.5 63.5t-10 63q0 112 100 187l45 34l-27 40q-46 72 -46 117q0 74 47.5 113.5t122.5 39.5q23 0 47.5 -6.5t50.5 -21t42.5 -45
t16.5 -72.5q0 -85 -87 -150zM247 458l25 23q52 50 52 92q0 31 -18 49t-50 18q-26 0 -46.5 -15t-20.5 -47q0 -42 42 -99zM216 336l-21 -18q-66 -53 -66 -127q0 -48 35.5 -81t85.5 -33q60 0 111 55z" />
    <glyph glyph-name="quotesingle" unicode="'" horiz-adv-x="240" 
d="M77 428v286h86v-286h-86z" />
    <glyph glyph-name="parenleft" unicode="(" horiz-adv-x="259" 
d="M184 714h75q-114 -191 -114 -449q0 -120 28.5 -240t85.5 -209h-77q-64 84 -104.5 201.5t-40.5 247.5q0 129 41.5 246.5t105.5 202.5z" />
    <glyph glyph-name="parenright" unicode=")" horiz-adv-x="259" 
d="M75 -184h-75q114 191 114 449q0 120 -28.5 240t-85.5 209h77q64 -84 104.5 -201.5t40.5 -247.5q0 -129 -41.5 -246.5t-105.5 -202.5z" />
    <glyph glyph-name="asterisk" unicode="*" horiz-adv-x="370" 
d="M152 714h68v-124l111 43l23 -66l-114 -33l78 -103l-56 -43l-76 105l-74 -105l-56 43l76 103l-116 33l23 66l113 -44v125z" />
    <glyph glyph-name="plus" unicode="+" horiz-adv-x="600" 
d="M257 296v210h86v-210h210v-86h-210v-210h-86v210h-210v86h210z" />
    <glyph glyph-name="comma" unicode="," horiz-adv-x="240" 
d="M63 0v132h114v-132q0 -64 -26 -103t-88 -51v58q50 13 50 81v15h-50z" />
    <glyph glyph-name="hyphen" unicode="-" horiz-adv-x="352" 
d="M45 238v102h262v-102h-262z" />
    <glyph glyph-name="period" unicode="." horiz-adv-x="240" 
d="M63 0v132h114v-132h-114z" />
    <glyph glyph-name="slash" unicode="/" horiz-adv-x="296" 
d="M-10 -14l227 742h89l-227 -742h-89z" />
    <glyph glyph-name="zero" unicode="0" horiz-adv-x="480" 
d="M142 347q0 -158 20.5 -219.5t77.5 -61.5t77.5 61.5t20.5 219.5t-20.5 219.5t-77.5 61.5t-77.5 -61.5t-20.5 -219.5zM28 347q0 198 52.5 279.5t159.5 81.5t159.5 -81.5t52.5 -279.5t-52.5 -279.5t-159.5 -81.5t-159.5 81.5t-52.5 279.5z" />
    <glyph glyph-name="one" unicode="1" horiz-adv-x="480" 
d="M321 0h-114v514h-147v74h11q143 0 167 106v14h83v-708z" />
    <glyph glyph-name="two" unicode="2" horiz-adv-x="480" 
d="M447 96v-96h-414q0 62 16.5 113.5t42.5 86.5t57.5 65t63.5 56t58 53.5t42.5 65t16.5 81.5q0 47 -21.5 77t-66.5 30q-99 0 -99 -148h-108q0 228 209 228q103 0 151.5 -52.5t48.5 -136.5q0 -66 -24 -117t-61 -85t-75.5 -64t-73.5 -70t-50 -87h287z" />
    <glyph glyph-name="three" unicode="3" horiz-adv-x="480" 
d="M31 197h108q0 -55 22 -93t75 -38q50 0 74.5 35t24.5 92q0 68 -26 100t-89 32h-44v80h41q102 0 102 121q0 43 -20.5 72.5t-61.5 29.5q-90 0 -90 -124h-108q0 100 51.5 152t152.5 52q35 0 66 -8.5t60 -28t46.5 -56.5t17.5 -88q0 -57 -31 -102t-82 -53v-3q57 -5 93 -48.5
t36 -115.5q0 -107 -54 -163t-162 -56q-202 0 -202 211z" />
    <glyph glyph-name="four" unicode="4" horiz-adv-x="480" 
d="M21 159v98l245 451h116v-458h77v-91h-77v-159h-108v159h-253zM274 250v292h-2l-159 -292h161z" />
    <glyph glyph-name="five" unicode="5" horiz-adv-x="480" 
d="M32 176v15h108v-19q0 -43 24 -71.5t69 -28.5q101 0 101 161q0 151 -95 151q-36 0 -60.5 -17.5t-32.5 -47.5l-101 4l35 371h341v-91h-256l-23 -186l2 -2q49 55 119 55q53 0 91 -20.5t57.5 -56t28 -74t8.5 -83.5q0 -113 -54 -181.5t-164 -68.5q-95 0 -146.5 48.5
t-51.5 141.5z" />
    <glyph glyph-name="six" unicode="6" horiz-adv-x="480" 
d="M442 536h-114q0 36 -18.5 64t-57.5 28q-38 0 -62.5 -22t-34.5 -63.5t-13 -75.5t-3 -83l3 -2q41 75 138 75q76 0 125.5 -54.5t49.5 -156.5q0 -260 -217 -260q-65 0 -108.5 23.5t-65.5 71t-30.5 104.5t-8.5 140q0 86 9.5 150t33 119.5t69.5 84.5t114 29q191 0 191 -172z
M149 213q0 -65 25 -106t73 -41q94 0 94 152q0 153 -94 153q-57 0 -77.5 -42t-20.5 -116z" />
    <glyph glyph-name="seven" unicode="7" horiz-adv-x="480" 
d="M30 592v102h420v-90q-85 -111 -148 -279t-75 -325h-120q12 152 78 315t155 277h-310z" />
    <glyph glyph-name="eight" unicode="8" horiz-adv-x="480" 
d="M151 522q0 -108 89 -108t89 108q0 106 -89 106t-89 -106zM140 200q0 -134 100 -134t100 134q0 63 -22 98.5t-78 35.5t-78 -35.5t-22 -98.5zM240 -14q-214 0 -214 212q0 76 33 121t88 56v2q-98 34 -98 153q0 82 51 130t140 48t140 -48t51 -130q0 -119 -98 -153v-2
q55 -11 88 -56t33 -121q0 -212 -214 -212z" />
    <glyph glyph-name="nine" unicode="9" horiz-adv-x="480" 
d="M38 158h114q0 -36 18.5 -64t57.5 -28q38 0 62.5 22t34.5 63.5t13 75.5t3 83l-3 2q-41 -75 -138 -75q-76 0 -125.5 54.5t-49.5 156.5q0 260 217 260q65 0 108.5 -23.5t65.5 -71t30.5 -104.5t8.5 -140q0 -86 -9.5 -150t-33 -119.5t-69.5 -84.5t-114 -29q-191 0 -191 172z
M331 481q0 65 -25 106t-73 41q-94 0 -94 -152q0 -153 94 -153q57 0 77.5 42t20.5 116z" />
    <glyph glyph-name="colon" unicode=":" horiz-adv-x="240" 
d="M63 380v132h114v-132h-114zM63 0v132h114v-132h-114z" />
    <glyph glyph-name="semicolon" unicode=";" horiz-adv-x="240" 
d="M63 0v132h114v-132q0 -64 -26 -103t-88 -51v58q50 13 50 81v15h-50zM63 380v132h114v-132h-114z" />
    <glyph glyph-name="less" unicode="&#x3c;" horiz-adv-x="600" 
d="M47 216v74l506 226v-86l-404 -177l404 -177v-86z" />
    <glyph glyph-name="equal" unicode="=" horiz-adv-x="600" 
d="M47 314v86h506v-86h-506zM47 106v86h506v-86h-506z" />
    <glyph glyph-name="greater" unicode="&#x3e;" horiz-adv-x="600" 
d="M553 290v-74l-506 -226v86l404 177l-404 177v86z" />
    <glyph glyph-name="question" unicode="?" horiz-adv-x="463" 
d="M169 192v60q0 40 15 70.5t36 51t42.5 41t36.5 51t15 70.5q0 106 -81 106q-90 0 -90 -141h-108q0 102 47.5 164.5t149.5 62.5q93 0 144.5 -50t51.5 -142q0 -47 -16 -86t-39 -64.5t-46.5 -48.5t-39.5 -49t-16 -54v-42h-102zM162 0v114h114v-114h-114z" />
    <glyph glyph-name="at" unicode="@" horiz-adv-x="800" 
d="M490 397q0 96 -81 96q-59 0 -100 -58t-41 -123q0 -47 23 -74t70 -27q49 0 89 63.5t40 122.5zM539 549h71l-75 -270q-11 -44 -11 -49q0 -22 33 -22q44 0 83.5 61t39.5 141q0 104 -78 171t-186 67q-128 0 -212 -87t-84 -207q0 -128 84.5 -208t203.5 -80q157 0 247 88h84
q-42 -76 -127.5 -122t-203.5 -46q-164 0 -271.5 100.5t-107.5 271.5q0 158 108 264t279 106q153 0 254 -85.5t101 -219.5q0 -57 -17 -106t-44.5 -81.5t-61.5 -55.5t-67.5 -33t-63.5 -10q-36 0 -53.5 16t-16.5 43h-2q-53 -59 -124 -59q-59 0 -99 44.5t-40 117.5q0 106 68 187
t155 81q77 0 115 -77z" />
    <glyph glyph-name="A" unicode="A" horiz-adv-x="519" 
d="M177 266h169l-82 352h-2zM-9 0l203 714h146l188 -714h-119l-44 175h-209l-46 -175h-119z" />
    <glyph glyph-name="B" unicode="B" horiz-adv-x="537" 
d="M173 413h90q51 0 78 30.5t27 82.5q0 59 -30 80.5t-85 21.5h-80v-215zM173 86h113q51 0 78 32.5t27 93.5q0 57 -31 89t-81 32h-106v-247zM59 0v714h231q86 0 139 -42t53 -131q0 -129 -105 -162v-2q62 -11 95 -53.5t33 -128.5q0 -89 -59.5 -142t-160.5 -53h-226z" />
    <glyph glyph-name="C" unicode="C" horiz-adv-x="519" 
d="M384 256h114v-15q0 -51 -11 -94.5t-35.5 -81t-68.5 -58.5t-105 -21q-132 0 -184 87t-52 284t52.5 284t184.5 87q215 0 215 -224v-13h-114v12q0 60 -23 100.5t-79 38.5q-44 0 -69.5 -22t-39 -84.5t-13.5 -175.5q0 -166 28 -227t94 -61q106 0 106 172v12z" />
    <glyph glyph-name="D" unicode="D" horiz-adv-x="556" 
d="M173 628v-542h94q72 0 102.5 59t30.5 212q0 151 -29.5 211t-103.5 60h-94zM59 0v714h203q66 0 112.5 -17.5t73.5 -46.5t42 -77t19.5 -97t4.5 -119t-4.5 -119t-19.5 -97t-42 -77t-73.5 -46.5t-112.5 -17.5h-203z" />
    <glyph glyph-name="E" unicode="E" horiz-adv-x="481" 
d="M59 0v714h386v-96h-272v-198h256v-96h-256v-228h280v-96h-394z" />
    <glyph glyph-name="F" unicode="F" horiz-adv-x="463" 
d="M59 0v714h381v-96h-267v-198h251v-96h-251v-324h-114z" />
    <glyph glyph-name="G" unicode="G" horiz-adv-x="537" 
d="M412 0v83h-2q-24 -51 -59.5 -74t-96.5 -23q-115 0 -163.5 88t-48.5 283q0 192 57 281.5t180 89.5q51 0 90 -15.5t61 -38t35.5 -52t18 -53.5t4.5 -47v-13h-108v17q0 47 -23.5 81.5t-76.5 34.5q-65 0 -94.5 -59.5t-29.5 -222.5q0 -166 27 -227t88 -61q65 -1 92 49.5
t27 168.5h-120v86h228v-376h-86z" />
    <glyph glyph-name="H" unicode="H" horiz-adv-x="556" 
d="M59 0v714h114v-286h210v286h114v-714h-114v332h-210v-332h-114z" />
    <glyph glyph-name="I" unicode="I" 
d="M54 0v714h114v-714h-114z" />
    <glyph glyph-name="J" unicode="J" horiz-adv-x="444" 
d="M16 215h108v-35q0 -51 16 -79t60 -29q22 0 37 8.5t22.5 19.5t11.5 33.5t4.5 37t0.5 43.5v500h114v-517q0 -112 -50.5 -162t-141.5 -49q-178 1 -182 183v46z" />
    <glyph glyph-name="K" unicode="K" horiz-adv-x="519" 
d="M59 0v714h114v-311h2l216 311h125l-206 -301l228 -413h-129l-173 321l-63 -90v-231h-114z" />
    <glyph glyph-name="L" unicode="L" horiz-adv-x="444" 
d="M46 0v714h114v-618h276v-96h-390z" />
    <glyph glyph-name="M" unicode="M" horiz-adv-x="722" 
d="M59 0v714h178l126 -529h2l124 529h174v-714h-108v594h-2l-144 -594h-96l-144 594h-2v-594h-108z" />
    <glyph glyph-name="N" unicode="N" horiz-adv-x="574" 
d="M59 0v714h139l207 -532h2v532h108v-714h-139l-207 546h-2v-546h-108z" />
    <glyph glyph-name="O" unicode="O" horiz-adv-x="556" 
d="M278 -14q-123 0 -179.5 89.5t-56.5 281.5t56.5 281.5t179.5 89.5t179.5 -89.5t56.5 -281.5t-56.5 -281.5t-179.5 -89.5zM278 72q28 0 48 11t38 40.5t27 88.5t9 148q0 87 -9 145t-27 86.5t-38 39.5t-48 11t-48 -11t-38 -39.5t-27 -86.5t-9 -145q0 -89 9 -148t27 -88.5
t38 -40.5t48 -11z" />
    <glyph glyph-name="P" unicode="P" horiz-adv-x="500" 
d="M173 628v-247h81q50 0 82 30t32 93q0 61 -28.5 92.5t-93.5 31.5h-73zM59 0v714h226q99 0 148 -56t49 -152q0 -97 -55 -154t-154 -57h-100v-295h-114z" />
    <glyph glyph-name="Q" unicode="Q" horiz-adv-x="556" 
d="M463 -64l-73 74q-41 -24 -112 -24q-123 0 -179.5 89.5t-56.5 281.5t56.5 281.5t179.5 89.5t179.5 -89.5t56.5 -281.5t-56 -283l73 -77zM265 132l65 65l47 -47q23 62 23 210q0 87 -9 145t-27 86.5t-38 39.5t-48 11t-48 -11t-38 -39.5t-27 -86.5t-9 -145q0 -89 9 -148
t27 -88.5t38 -40.5t48 -11q23 0 41 7z" />
    <glyph glyph-name="R" unicode="R" horiz-adv-x="537" 
d="M59 0v714h252q81 0 131 -44.5t50 -139.5q0 -71 -31 -118.5t-88 -56.5v-2q55 -5 82 -39t30 -107q2 -111 4 -145q2 -41 34 -62h-129q-14 17 -19 63q-2 19 -2.5 40t-1 49t-1.5 46q-2 60 -24.5 86t-79.5 26h-93v-310h-114zM173 396h91q54 0 84 31t30 85q0 116 -108 116h-97
v-232z" />
    <glyph glyph-name="S" unicode="S" horiz-adv-x="519" 
d="M33 221h114v-18q0 -131 117 -131q51 0 79.5 30.5t28.5 73.5q0 54 -25.5 83t-76.5 44l-78 27q-79 30 -114 75t-35 121q0 96 60 149t162 53q52 0 91 -13t59.5 -31.5t33 -46t15.5 -49.5t3 -48v-16h-114v15q0 103 -100 103q-41 0 -68.5 -25t-27.5 -78q0 -45 24.5 -72
t82.5 -49l77 -28q76 -27 110.5 -71.5t34.5 -117.5q0 -215 -236 -215q-63 0 -108 19.5t-67.5 53t-32 69t-9.5 76.5v17z" />
    <glyph glyph-name="T" unicode="T" horiz-adv-x="463" 
d="M176 0v618h-170v96h451v-96h-167v-618h-114z" />
    <glyph glyph-name="U" unicode="U" horiz-adv-x="537" 
d="M50 714h114v-512q0 -130 105 -130q104 0 104 130v512h114v-503q0 -119 -55.5 -172t-162.5 -53t-163 53t-56 172v503z" />
    <glyph glyph-name="V" unicode="V" horiz-adv-x="481" 
d="M162 0l-168 714h121l121 -570h2l128 570h121l-180 -714h-145z" />
    <glyph glyph-name="W" unicode="W" horiz-adv-x="741" 
d="M144 0l-138 714h115l94 -555h2l94 555h120l96 -558h2l93 558h113l-142 -714h-132l-92 538h-2l-91 -538h-132z" />
    <glyph glyph-name="X" unicode="X" horiz-adv-x="500" 
d="M0 0l188 363l-172 351h126l114 -237l112 237h123l-173 -351l182 -363h-126l-124 258l-127 -258h-123z" />
    <glyph glyph-name="Y" unicode="Y" horiz-adv-x="481" 
d="M180 0v279l-184 435h127l120 -308l123 308h119l-191 -435v-279h-114z" />
    <glyph glyph-name="Z" unicode="Z" horiz-adv-x="463" 
d="M18 0v90l299 528h-281v96h406v-96l-299 -522h302v-96h-427z" />
    <glyph glyph-name="bracketleft" unicode="[" horiz-adv-x="278" 
d="M77 -184v898h203v-80h-101v-738h101v-80h-203z" />
    <glyph glyph-name="backslash" unicode="\" horiz-adv-x="296" 
d="M217 -14l-227 742h89l227 -742h-89z" />
    <glyph glyph-name="bracketright" unicode="]" horiz-adv-x="278" 
d="M-2 -184v80h101v738h-101v80h203v-898h-203z" />
    <glyph glyph-name="asciicircum" unicode="^" horiz-adv-x="600" 
d="M457 280l-157 328l-157 -328h-86l204 414h76l206 -414h-86z" />
    <glyph glyph-name="underscore" unicode="_" horiz-adv-x="500" 
d="M0 -125v50h500v-50h-500z" />
    <glyph glyph-name="grave" unicode="`" 
d="M92 608l-106 144h120l60 -144h-74z" />
    <glyph glyph-name="a" unicode="a" horiz-adv-x="463" 
d="M405 420v-308q0 -15 8 -26.5t20 -11.5t18 3v-70q-28 -13 -53 -13q-87 0 -91 71h-2q-43 -79 -134 -79q-66 0 -103 38t-37 113q0 82 30 115t95 54l84 23q34 9 48.5 23t14.5 46q0 39 -16.5 59.5t-57.5 20.5q-49 0 -65.5 -27.5t-16.5 -75.5h-102q0 89 43 133t146 44
q77 0 124 -32t47 -100zM303 194v90q-16 -13 -64.5 -30t-55.5 -20q-44 -21 -44 -87q0 -36 17.5 -58.5t49.5 -22.5q48 0 72.5 33.5t24.5 94.5z" />
    <glyph glyph-name="b" unicode="b" horiz-adv-x="481" 
d="M52 0v714h108v-239h2q32 77 122 77q35 0 61.5 -10t52 -37.5t39 -85t13.5 -143.5q0 -143 -42 -216.5t-134 -73.5q-86 0 -118 80h-2v-66h-102zM154 263q0 -95 19.5 -143t71.5 -48q53 0 72 49.5t19 149.5q0 109 -18.5 152t-65.5 43q-58 0 -78 -48.5t-20 -154.5z" />
    <glyph glyph-name="c" unicode="c" horiz-adv-x="444" 
d="M313 196h102q-6 -103 -47.5 -156.5t-136.5 -53.5q-110 0 -155 73.5t-45 209.5t45 209.5t155 73.5q46 1 81 -13t54 -34.5t31 -48.5t15.5 -50.5t3.5 -46.5h-108q0 47 -17 80.5t-60 32.5q-54 0 -73 -51t-19 -152t19 -152t73 -51q43 -1 62.5 32.5t19.5 97.5z" />
    <glyph glyph-name="d" unicode="d" horiz-adv-x="481" 
d="M327 0v66h-2q-32 -80 -118 -80q-92 0 -134 73.5t-42 216.5q0 86 13.5 143.5t39 85t52 37.5t61.5 10q90 0 122 -77h2v239h108v-714h-102zM327 263q0 106 -20 154.5t-78 48.5q-47 0 -65.5 -43t-18.5 -152q0 -100 19 -149.5t72 -49.5q52 0 71.5 48t19.5 143z" />
    <glyph glyph-name="e" unicode="e" horiz-adv-x="463" 
d="M426 255h-281v-31q0 -32 3 -57t11.5 -51.5t27.5 -41t48 -14.5q27 0 45.5 13.5t26.5 35t11 38.5t3 33h102q0 -89 -50.5 -141.5t-138.5 -52.5q-31 0 -55 4.5t-52 21t-46.5 45t-31 80.5t-12.5 124q0 59 8 106t28 91.5t61.5 69t101.5 24.5q107 0 148.5 -59.5t41.5 -180.5v-57
zM145 329h173v29q0 120 -83 120q-48 0 -69 -39t-21 -99v-11z" />
    <glyph glyph-name="f" unicode="f" horiz-adv-x="278" 
d="M85 0v458h-75v80h75v50q0 74 34 104t103 30q35 0 59 -3v-83h-30q-58 0 -58 -51v-47h88v-80h-88v-458h-108z" />
    <glyph glyph-name="g" unicode="g" horiz-adv-x="481" 
d="M58 -46h102q0 -26 21.5 -45t56.5 -19q42 0 66.5 27t24.5 74v87h-2q-15 -34 -48.5 -54t-73.5 -20q-161 0 -161 271q0 53 5.5 94.5t22 86.5t53 70.5t90.5 25.5q45 0 77.5 -24t40.5 -56h2v66h102v-512q0 -210 -201 -210q-56 0 -94.5 14.5t-55 38.5t-22.5 44t-6 41zM152 286
q0 -34 1 -56.5t5.5 -51.5t13 -46t25 -29.5t39.5 -12.5q30 0 50 17t28.5 48t11.5 59.5t3 66.5q0 185 -86 185q-28 0 -47 -13.5t-28 -40t-12.5 -55.5t-3.5 -71z" />
    <glyph glyph-name="h" unicode="h" horiz-adv-x="481" 
d="M52 0v714h108v-234l3 -2q48 74 132 74q65 0 99.5 -34t34.5 -112v-406h-108v369q0 52 -17 74.5t-58 22.5q-36 0 -61 -27.5t-25 -77.5v-361h-108z" />
    <glyph glyph-name="i" unicode="i" 
d="M57 0v538h108v-538h-108zM57 614v108h108v-108h-108z" />
    <glyph glyph-name="j" unicode="j" 
d="M57 538h108v-573q0 -82 -34 -115.5t-108 -33.5q-23 0 -47 3v83h25q31 0 43.5 15.5t12.5 57.5v563zM57 722h108v-108h-108v108z" />
    <glyph glyph-name="k" unicode="k" horiz-adv-x="463" 
d="M52 0v714h108v-401h2l163 225l125 1l-162 -208l183 -331h-118l-132 245l-61 -74v-171h-108z" />
    <glyph glyph-name="l" unicode="l" 
d="M57 0v714h108v-714h-108z" />
    <glyph glyph-name="m" unicode="m" horiz-adv-x="740" 
d="M57 0v538h102v-63h3q20 36 55 56.5t74 20.5q96 0 125 -82q49 82 136 82q131 0 131 -143v-409h-108v369q0 52 -15.5 74.5t-49.5 22.5q-36 0 -61 -27.5t-25 -77.5v-361h-108v369q0 52 -16 74.5t-50 22.5q-35 0 -60 -27.5t-25 -77.5v-361h-108z" />
    <glyph glyph-name="n" unicode="n" horiz-adv-x="481" 
d="M52 0v538h102v-63h3q20 36 56.5 56.5t81.5 20.5q65 0 99.5 -34t34.5 -112v-406h-108v369q0 52 -17 74.5t-58 22.5q-36 0 -61 -27.5t-25 -77.5v-361h-108z" />
    <glyph glyph-name="o" unicode="o" horiz-adv-x="463" 
d="M31 269q0 136 45 209.5t155 73.5q111 0 156 -73.5t45 -209.5q0 -283 -201 -283q-200 0 -200 283zM139 269q0 -110 18.5 -156.5t73.5 -46.5q56 0 74.5 46.5t18.5 156.5q0 101 -19 152t-74 51q-54 0 -73 -51t-19 -152z" />
    <glyph glyph-name="p" unicode="p" horiz-adv-x="481" 
d="M52 -176v714h102v-66h2q37 80 121 80q173 0 173 -290q0 -81 -15 -138t-41 -85.5t-52.5 -40.5t-57.5 -12q-90 0 -122 77h-2v-239h-108zM154 275q0 -105 19 -154t73 -49q48 0 69 43t21 152q0 100 -19 149.5t-72 49.5q-52 0 -71.5 -48t-19.5 -143z" />
    <glyph glyph-name="q" unicode="q" horiz-adv-x="481" 
d="M321 -176v239h-2q-32 -77 -123 -77q-73 0 -119 62.5t-46 213.5q0 143 42 216.5t134 73.5q86 0 118 -80h2v66h102v-714h-108zM327 275q0 95 -19.5 143t-71.5 48q-53 0 -72 -49.5t-19 -149.5q0 -106 20.5 -150.5t63.5 -44.5q58 0 78 48.5t20 154.5z" />
    <glyph glyph-name="r" unicode="r" horiz-adv-x="315" 
d="M52 0v538h108v-84h2q39 98 125 98q12 0 26 -4v-110q-24 6 -45 6q-45 0 -76.5 -27t-31.5 -95v-322h-108z" />
    <glyph glyph-name="s" unicode="s" horiz-adv-x="426" 
d="M386 381h-102v14q0 83 -71 83q-35 0 -56 -17t-21 -53q0 -31 16 -47.5t60 -31.5l69 -24q61 -21 89 -56.5t28 -98.5q0 -82 -53 -123t-140 -41q-97 0 -137 42t-40 125v20h96v-17q0 -48 19.5 -72t64.5 -24q88 0 88 79q0 59 -59 79l-88 31q-62 21 -88.5 56t-26.5 99
q0 74 49 111t135 37q93 0 130.5 -43t37.5 -104v-24z" />
    <glyph glyph-name="t" unicode="t" horiz-adv-x="278" 
d="M4 458v80h74v153h108v-153h88v-80h-88v-321q0 -32 10.5 -44.5t38.5 -12.5q24 0 39 3v-80q-34 -9 -87 -9q-59 0 -84 26t-25 104v334h-74z" />
    <glyph glyph-name="u" unicode="u" horiz-adv-x="481" 
d="M327 0v63h-3q-20 -36 -56.5 -56.5t-81.5 -20.5q-65 0 -99.5 39t-34.5 137v376h108v-386q0 -43 18.5 -61.5t54.5 -18.5q37 0 62.5 23.5t25.5 66.5v376h108v-538h-102z" />
    <glyph glyph-name="v" unicode="v" horiz-adv-x="426" 
d="M151 0l-144 538h116l94 -424h2l85 424h115l-142 -538h-126z" />
    <glyph glyph-name="w" unicode="w" horiz-adv-x="685" 
d="M137 0l-122 538h112l75 -424h2l80 424h122l80 -424h2l74 424h108l-123 -538h-121l-84 418h-2l-77 -418h-126z" />
    <glyph glyph-name="x" unicode="x" horiz-adv-x="426" 
d="M3 0l147 279l-139 259h118l84 -178l88 178h116l-140 -259l146 -279h-117l-94 199l-94 -199h-115z" />
    <glyph glyph-name="y" unicode="y" horiz-adv-x="426" 
d="M8 538h116l93 -404h2l86 404h113l-148 -558q-31 -107 -66.5 -136.5t-121.5 -27.5q-15 0 -43 4v86q24 -4 35 -4q30 0 47 9t26 33l14 44z" />
    <glyph glyph-name="z" unicode="z" horiz-adv-x="407" 
d="M25 0v84l235 363h-221v91h343v-89l-226 -358h226v-91h-357z" />
    <glyph glyph-name="braceleft" unicode="{" horiz-adv-x="278" 
d="M7 232v66q33 2 57 32t24 70v183q0 61 32.5 96t78.5 35h72v-62h-33q-27 0 -37.5 -17.5t-10.5 -51.5v-183q0 -61 -31 -94t-61 -40v-2q30 -7 61 -40t31 -94v-183q0 -34 10.5 -51.5t37.5 -17.5h33v-62h-72q-46 0 -78.5 35t-32.5 96v183q0 40 -24 70t-57 32z" />
    <glyph glyph-name="bar" unicode="|" 
d="M68 -14v742h86v-742h-86z" />
    <glyph glyph-name="braceright" unicode="}" horiz-adv-x="278" 
d="M271 298v-66q-33 -2 -57 -32t-24 -70v-183q0 -61 -32.5 -96t-78.5 -35h-72v62h33q27 0 37.5 17.5t10.5 51.5v183q0 61 31 94t61 40v2q-30 7 -61 40t-31 94v183q0 34 -10.5 51.5t-37.5 17.5h-33v62h72q46 0 78.5 -35t32.5 -96v-183q0 -40 24 -70t57 -32z" />
    <glyph glyph-name="asciitilde" unicode="~" horiz-adv-x="600" 
d="M105 169l-36 76q21 42 54.5 64.5t70.5 22.5q40 0 116 -37q74 -35 97 -35q45 0 88 77l36 -76q-51 -87 -125 -87q-40 0 -116 37q-74 35 -97 35q-45 0 -88 -77z" />
    <glyph glyph-name="uni00A0" unicode="&#xa0;" horiz-adv-x="240" 
 />
    <glyph glyph-name="exclamdown" unicode="&#xa1;" horiz-adv-x="278" 
d="M179 346l17 -296v-226h-114v226l17 296h80zM196 538v-114h-114v114h114z" />
    <glyph glyph-name="cent" unicode="&#xa2;" horiz-adv-x="480" 
d="M224 66v406q-40 -12 -54 -63t-14 -140q0 -88 14 -138.5t54 -64.5zM224 -102v88q-97 8 -136.5 81t-39.5 202t39.5 202t136.5 81v75h44v-75q50 -3 85 -24t51 -53t22 -59.5t6 -56.5h-108q0 101 -56 113v-406q62 18 62 130h102q-6 -98 -43 -151t-121 -59v-88h-44z" />
    <glyph glyph-name="sterling" unicode="&#xa3;" horiz-adv-x="480" 
d="M18 315v68h69l-17 35q-33 62 -33 111q0 72 54 125.5t153 53.5q110 0 161 -55.5t51 -138.5v-12h-108v11q0 43 -22.5 79t-76.5 36q-45 0 -71.5 -23.5t-26.5 -62.5q0 -52 32 -113l23 -46h166v-68h-140q10 -28 10 -59q0 -53 -30.5 -92t-86.5 -81l2 -4q38 23 73 23
q20 0 64 -15t61 -15q29 0 75 26l30 16l38 -79l-20 -12q-64 -38 -127 -37q-34 1 -90 20t-84 19q-37 0 -95 -31l-40 77l18 13q104 75 104 165q0 28 -18 66h-98z" />
    <glyph glyph-name="currency" unicode="&#xa4;" horiz-adv-x="480" 
d="M6 157l51 51q-47 63 -47 139q0 79 47 139l-51 51l45 45l51 -51q62 46 138 46t138 -46l51 51l45 -45l-51 -52q47 -62 47 -138t-47 -138l51 -52l-45 -45l-52 52q-60 -47 -137 -47q-76 0 -138 47l-51 -52zM240 191q63 0 106.5 45t43.5 111t-43.5 111t-106.5 45t-106.5 -45
t-43.5 -111t43.5 -111t106.5 -45z" />
    <glyph glyph-name="yen" unicode="&#xa5;" horiz-adv-x="480" 
d="M182 0v162h-141v68h141v47l-10 23h-131v68h101l-140 326h124l114 -284l119 284h119l-147 -326h100v-68h-130l-11 -23v-47h141v-68h-141v-162h-108z" />
    <glyph glyph-name="brokenbar" unicode="&#xa6;" 
d="M68 -14v277h86v-277h-86zM68 451v277h86v-277h-86z" />
    <glyph glyph-name="section" unicode="&#xa7;" horiz-adv-x="481" 
d="M302 346l-119 69l-13 -11q-50 -35 -50 -76q0 -25 16.5 -41t59.5 -41l114 -67l16 12q35 30 35 71q0 48 -59 84zM424 571h-108q0 77 -78 77q-34 0 -55.5 -18.5t-21.5 -46.5q0 -23 17.5 -42.5t58.5 -42.5l135 -75q85 -48 85 -149q0 -87 -80 -139q57 -47 57 -116
q0 -84 -52.5 -129.5t-137.5 -45.5q-95 0 -144 50t-49 133h108q0 -97 85 -97q33 0 54.5 20t21.5 55q0 34 -19 54t-55 40l-114 62q-108 59 -108 154q0 89 93 142q-64 36 -64 115q0 74 53 115t135 41q52 0 89.5 -14.5t57 -39t28 -50t8.5 -53.5z" />
    <glyph glyph-name="dieresis" unicode="&#xa8;" 
d="M146 628v108h96v-108h-96zM-20 628v108h96v-108h-96z" />
    <glyph glyph-name="copyright" unicode="&#xa9;" horiz-adv-x="800" 
d="M510 292h83q-13 -74 -64 -116t-125 -42q-91 0 -146.5 61t-55.5 163t56.5 162.5t152.5 60.5q70 0 119.5 -40.5t59.5 -112.5h-80q-8 36 -34.5 58.5t-66.5 20.5q-57 0 -89 -42t-32 -107q0 -66 33 -108t92 -42q38 0 65 23t32 61zM400 66q116 0 198 85t82 206t-82 206t-198 85
t-198 -85t-82 -206t82 -206t198 -85zM29 357q0 154 108.5 262.5t262.5 108.5t262.5 -108.5t108.5 -262.5t-108.5 -262.5t-262.5 -108.5t-262.5 108.5t-108.5 262.5z" />
    <glyph glyph-name="ordfeminine" unicode="&#xaa;" horiz-adv-x="316" 
d="M8 457q0 51 21 71t71 33l52 13q24 6 34.5 14t10.5 28q0 36 -46 36q-53 0 -53 -50h-74q0 54 30.5 80t105.5 26q117 0 117 -79v-177q0 -23 17 -23q6 0 14 2v-57q-32 -7 -41 -7q-59 0 -62 47h-3q-31 -47 -96 -47q-98 0 -98 90zM197 490v57q-10 -7 -40.5 -17t-37.5 -14
q-25 -12 -25 -51q0 -14 11.5 -25t30.5 -11q27 0 44 17t17 44z" />
    <glyph glyph-name="guillemotleft" unicode="&#xab;" horiz-adv-x="407" 
d="M213 232v114l144 135v-110l-88 -82l88 -82v-110zM50 232v114l144 135v-110l-88 -82l88 -82v-110z" />
    <glyph glyph-name="logicalnot" unicode="&#xac;" horiz-adv-x="600" 
d="M467 106v208h-420v86h506v-294h-86z" />
    <glyph glyph-name="uni00AD" unicode="&#xad;" horiz-adv-x="352" 
d="M45 238v102h262v-102h-262z" />
    <glyph glyph-name="registered" unicode="&#xae;" horiz-adv-x="800" 
d="M485 145l-108 179h-63v-179h-74v424h165q80 0 119.5 -29.5t39.5 -92.5q0 -100 -109 -120l116 -182h-86zM314 386h76q23 0 38.5 2t31 8t23 19.5t7.5 34.5q0 57 -94 57h-82v-121zM400 66q116 0 198 85t82 206t-82 206t-198 85t-198 -85t-82 -206t82 -206t198 -85zM29 357
q0 154 108.5 262.5t262.5 108.5t262.5 -108.5t108.5 -262.5t-108.5 -262.5t-262.5 -108.5t-262.5 108.5t-108.5 262.5z" />
    <glyph glyph-name="macron" unicode="&#xaf;" 
d="M-30 714h282v-62h-282v62z" />
    <glyph glyph-name="degree" unicode="&#xb0;" horiz-adv-x="400" 
d="M51 559q0 61 43.5 105t105.5 44t105.5 -44t43.5 -105t-43.5 -105t-105.5 -44t-105.5 44t-43.5 105zM119 559q0 -34 23.5 -57.5t57.5 -23.5t57.5 23.5t23.5 57.5t-23.5 57.5t-57.5 23.5t-57.5 -23.5t-23.5 -57.5z" />
    <glyph glyph-name="plusminus" unicode="&#xb1;" horiz-adv-x="600" 
d="M257 355v151h86v-151h210v-86h-210v-151h-86v151h-210v86h210zM47 0v86h506v-86h-506z" />
    <glyph glyph-name="twosuperior" unicode="&#xb2;" horiz-adv-x="313" 
d="M292 348v-68h-276q0 55 20 96t48.5 64.5t57 43.5t48.5 45.5t20 58.5q0 58 -51 58q-56 0 -56 -76h-86q0 138 143 138q136 0 136 -114q0 -38 -15.5 -67.5t-40 -49.5t-50 -37.5t-49.5 -41t-34 -50.5h185z" />
    <glyph glyph-name="threesuperior" unicode="&#xb3;" horiz-adv-x="313" 
d="M116 471v62h27q32 0 47.5 17.5t15.5 41.5q0 21 -13 37.5t-37 16.5q-27 0 -40 -19t-13 -42h-86q0 59 39 91t106 32q52 0 91 -27.5t39 -80.5q0 -33 -23.5 -61t-56.5 -33v-2q40 -2 65.5 -28.5t25.5 -70.5q0 -62 -41.5 -97t-106.5 -35q-74 0 -109.5 30.5t-35.5 96.5h86
q0 -23 14 -44t45 -21t46.5 20.5t15.5 50.5q0 65 -71 65h-30z" />
    <glyph glyph-name="acute" unicode="&#xb4;" 
d="M56 608l60 144h120l-106 -144h-74z" />
    <glyph glyph-name="mu" unicode="&#xb5;" horiz-adv-x="481" 
d="M52 -176v714h108v-369q0 -52 17 -74.5t58 -22.5q35 0 60.5 27.5t25.5 77.5v361h108v-538h-102v63h-3q-20 -36 -51 -56.5t-63 -20.5t-50 18v-180h-108z" />
    <glyph glyph-name="paragraph" unicode="&#xb6;" horiz-adv-x="600" 
d="M443 -142v788h-111v-788h-91v486q-78 0 -133 52t-55 130q0 97 61.5 142.5t171.5 45.5h248v-856h-91z" />
    <glyph glyph-name="periodcentered" unicode="&#xb7;" horiz-adv-x="240" 
d="M48 308q0 30 21 51t51 21t51 -21t21 -51t-21 -51t-51 -21t-51 21t-21 51z" />
    <glyph glyph-name="cedilla" unicode="&#xb8;" 
d="M96 0h50l-41 -57q25 5 40 5q33 0 55.5 -22t22.5 -52q0 -40 -33.5 -65t-83.5 -25q-56 0 -101 17l16 40q35 -13 66 -13q56 0 56 38q0 17 -13.5 27.5t-32.5 10.5q-11 0 -38 -8l-18 17z" />
    <glyph glyph-name="onesuperior" unicode="&#xb9;" horiz-adv-x="313" 
d="M130 280v305h-90v56h7q94 0 109 59v8h60v-428h-86z" />
    <glyph glyph-name="ordmasculine" unicode="&#xba;" horiz-adv-x="316" 
d="M158 367q-79 0 -111.5 44t-32.5 125q0 84 32.5 128t111.5 44t111.5 -44t32.5 -128q0 -81 -32.5 -125t-111.5 -44zM158 429q58 0 58 107q0 52 -12 81t-46 29t-46 -29t-12 -81q0 -107 58 -107z" />
    <glyph glyph-name="guillemotright" unicode="&#xbb;" horiz-adv-x="407" 
d="M194 346v-114l-144 -135v110l88 82l-88 82v110zM357 346v-114l-144 -135v110l88 82l-88 82v110z" />
    <glyph glyph-name="onequarter" unicode="&#xbc;" horiz-adv-x="721" 
d="M545 0v94h-164v61l158 273h86v-278h50v-56h-50v-94h-80zM545 150v182h-2l-103 -182h105zM74 -31l421 756h74l-421 -756h-74zM100 280v305h-90v56h7q94 0 109 59v8h60v-428h-86z" />
    <glyph glyph-name="onehalf" unicode="&#xbd;" horiz-adv-x="721" 
d="M74 -31l421 756h74l-421 -756h-74zM100 280v305h-90v56h7q94 0 109 59v8h60v-428h-86zM687 0h-276q0 55 20 96t48.5 64.5t57 43.5t48.5 45.5t20 58.5q0 58 -51 58q-56 0 -56 -76h-86q0 138 143 138q136 0 136 -114q0 -38 -15.5 -67.5t-40 -49.5t-50 -37.5t-49.5 -41
t-34 -50.5h185v-68z" />
    <glyph glyph-name="threequarters" unicode="&#xbe;" horiz-adv-x="721" 
d="M545 0v94h-164v61l158 273h86v-278h50v-56h-50v-94h-80zM545 150v182h-2l-103 -182h105zM108 -31l421 756h74l-421 -756h-74zM90 471v62h27q32 0 47.5 17.5t15.5 41.5q0 21 -13 37.5t-37 16.5q-27 0 -40 -19t-13 -42h-86q0 59 39 91t106 32q52 0 91 -27.5t39 -80.5
q0 -33 -23.5 -61t-56.5 -33v-2q40 -2 65.5 -28.5t25.5 -70.5q0 -62 -41.5 -97t-106.5 -35q-74 0 -109.5 30.5t-35.5 96.5h86q0 -23 14 -44t45 -21t46.5 20.5t15.5 50.5q0 65 -71 65h-30z" />
    <glyph glyph-name="questiondown" unicode="&#xbf;" horiz-adv-x="463" 
d="M294 346v-60q0 -40 -15 -70.5t-36.5 -51t-42.5 -41t-36 -51t-15 -70.5q0 -106 81 -106q90 0 90 141h108q0 -102 -47.5 -164.5t-149.5 -62.5q-93 0 -144.5 50t-51.5 142q0 47 16 86t39.5 64.5t46.5 48.5t39 49t16 54v42h102zM301 538v-114h-114v114h114z" />
    <glyph glyph-name="Agrave" unicode="&#xc0;" horiz-adv-x="519" 
d="M177 266h169l-82 352h-2zM-9 0l203 714h146l188 -714h-119l-44 175h-209l-46 -175h-119zM248 754l-106 144h120l60 -144h-74z" />
    <glyph glyph-name="Aacute" unicode="&#xc1;" horiz-adv-x="519" 
d="M177 266h169l-82 352h-2zM-9 0l203 714h146l188 -714h-119l-44 175h-209l-46 -175h-119zM212 754l60 144h120l-106 -144h-74z" />
    <glyph glyph-name="Acircumflex" unicode="&#xc2;" horiz-adv-x="519" 
d="M177 266h169l-82 352h-2zM-9 0l203 714h146l188 -714h-119l-44 175h-209l-46 -175h-119zM123 754l91 144h108l89 -144h-91l-54 88l-57 -88h-86z" />
    <glyph glyph-name="Atilde" unicode="&#xc3;" horiz-adv-x="519" 
d="M177 266h169l-82 352h-2zM-9 0l203 714h146l188 -714h-119l-44 175h-209l-46 -175h-119zM356 884h62q0 -39 -23.5 -78.5t-62.5 -39.5q-24 0 -65 17.5t-55 17.5q-16 0 -25 -12t-9 -28h-62q0 41 25.5 80.5t75.5 39.5q13 0 53 -17q38 -18 56 -18q30 0 30 38z" />
    <glyph glyph-name="Adieresis" unicode="&#xc4;" horiz-adv-x="519" 
d="M177 266h169l-82 352h-2zM-9 0l203 714h146l188 -714h-119l-44 175h-209l-46 -175h-119zM302 774v108h96v-108h-96zM136 774v108h96v-108h-96z" />
    <glyph glyph-name="Aring" unicode="&#xc5;" horiz-adv-x="519" 
d="M177 266h169l-82 352h-2zM-9 0l203 714h146l188 -714h-119l-44 175h-209l-46 -175h-119zM211 845q0 -23 16.5 -39.5t39.5 -16.5t39.5 16.5t16.5 39.5t-16.5 39.5t-39.5 16.5t-39.5 -16.5t-16.5 -39.5zM161 845q0 44 31 75t75 31t75 -31t31 -75t-31 -75t-75 -31t-75 31
t-31 75z" />
    <glyph glyph-name="AE" unicode="&#xc6;" horiz-adv-x="741" 
d="M200 266h137v357h-9zM-12 0l273 714h437v-96h-253v-198h239v-96h-239v-228h262v-96h-370v175h-167l-63 -175h-119z" />
    <glyph glyph-name="Ccedilla" unicode="&#xc7;" horiz-adv-x="519" 
d="M202 -87l47 73q-115 10 -161 97.5t-46 273.5q0 197 52.5 284t184.5 87q215 0 215 -224v-13h-114v12q0 60 -23 100.5t-79 38.5q-44 0 -69.5 -22t-39 -84.5t-13.5 -175.5q0 -166 28 -227t94 -61q106 0 106 172v12h114v-15q0 -67 -17.5 -120t-64 -92t-119.5 -43l-31 -43
q25 5 40 5q33 0 55.5 -22t22.5 -52q0 -40 -33.5 -65t-83.5 -25q-56 0 -101 17l16 40q35 -13 66 -13q56 0 56 38q0 17 -13.5 27.5t-32.5 10.5q-11 0 -38 -8z" />
    <glyph glyph-name="Egrave" unicode="&#xc8;" horiz-adv-x="481" 
d="M59 0v714h386v-96h-272v-198h256v-96h-256v-228h280v-96h-394zM234 754l-106 144h120l60 -144h-74z" />
    <glyph glyph-name="Eacute" unicode="&#xc9;" horiz-adv-x="481" 
d="M59 0v714h386v-96h-272v-198h256v-96h-256v-228h280v-96h-394zM198 754l60 144h120l-106 -144h-74z" />
    <glyph glyph-name="Ecircumflex" unicode="&#xca;" horiz-adv-x="481" 
d="M59 0v714h386v-96h-272v-198h256v-96h-256v-228h280v-96h-394zM109 754l91 144h108l89 -144h-91l-54 88l-57 -88h-86z" />
    <glyph glyph-name="Edieresis" unicode="&#xcb;" horiz-adv-x="481" 
d="M59 0v714h386v-96h-272v-198h256v-96h-256v-228h280v-96h-394zM288 774v108h96v-108h-96zM122 774v108h96v-108h-96z" />
    <glyph glyph-name="Igrave" unicode="&#xcc;" 
d="M54 0v714h114v-714h-114zM92 754l-106 144h120l60 -144h-74z" />
    <glyph glyph-name="Iacute" unicode="&#xcd;" 
d="M54 0v714h114v-714h-114zM56 754l60 144h120l-106 -144h-74z" />
    <glyph glyph-name="Icircumflex" unicode="&#xce;" 
d="M54 0v714h114v-714h-114zM-33 754l91 144h108l89 -144h-91l-54 88l-57 -88h-86z" />
    <glyph glyph-name="Idieresis" unicode="&#xcf;" 
d="M54 0v714h114v-714h-114zM146 774v108h96v-108h-96zM-20 774v108h96v-108h-96z" />
    <glyph glyph-name="Eth" unicode="&#xd0;" horiz-adv-x="556" 
d="M59 0v333h-59v80h59v301h203q66 0 112.5 -17.5t73.5 -46.5t42 -77t19.5 -97t4.5 -119t-4.5 -119t-19.5 -97t-42 -77t-73.5 -46.5t-112.5 -17.5h-203zM173 86h94q72 0 102.5 59t30.5 212q0 151 -29.5 211t-103.5 60h-94v-215h119v-80h-119v-247z" />
    <glyph glyph-name="Ntilde" unicode="&#xd1;" horiz-adv-x="574" 
d="M59 0v714h139l207 -532h2v532h108v-714h-139l-207 546h-2v-546h-108zM376 884h62q0 -39 -23.5 -78.5t-62.5 -39.5q-24 0 -65 17.5t-55 17.5q-16 0 -25 -12t-9 -28h-62q0 41 25.5 80.5t75.5 39.5q13 0 53 -17q38 -18 56 -18q30 0 30 38z" />
    <glyph glyph-name="Ograve" unicode="&#xd2;" horiz-adv-x="556" 
d="M278 -14q-123 0 -179.5 89.5t-56.5 281.5t56.5 281.5t179.5 89.5t179.5 -89.5t56.5 -281.5t-56.5 -281.5t-179.5 -89.5zM278 72q28 0 48 11t38 40.5t27 88.5t9 148q0 87 -9 145t-27 86.5t-38 39.5t-48 11t-48 -11t-38 -39.5t-27 -86.5t-9 -145q0 -89 9 -148t27 -88.5
t38 -40.5t48 -11zM259 754l-106 144h120l60 -144h-74z" />
    <glyph glyph-name="Oacute" unicode="&#xd3;" horiz-adv-x="556" 
d="M278 -14q-123 0 -179.5 89.5t-56.5 281.5t56.5 281.5t179.5 89.5t179.5 -89.5t56.5 -281.5t-56.5 -281.5t-179.5 -89.5zM278 72q28 0 48 11t38 40.5t27 88.5t9 148q0 87 -9 145t-27 86.5t-38 39.5t-48 11t-48 -11t-38 -39.5t-27 -86.5t-9 -145q0 -89 9 -148t27 -88.5
t38 -40.5t48 -11zM223 754l60 144h120l-106 -144h-74z" />
    <glyph glyph-name="Ocircumflex" unicode="&#xd4;" horiz-adv-x="556" 
d="M278 -14q-123 0 -179.5 89.5t-56.5 281.5t56.5 281.5t179.5 89.5t179.5 -89.5t56.5 -281.5t-56.5 -281.5t-179.5 -89.5zM278 72q28 0 48 11t38 40.5t27 88.5t9 148q0 87 -9 145t-27 86.5t-38 39.5t-48 11t-48 -11t-38 -39.5t-27 -86.5t-9 -145q0 -89 9 -148t27 -88.5
t38 -40.5t48 -11zM134 754l91 144h108l89 -144h-91l-54 88l-57 -88h-86z" />
    <glyph glyph-name="Otilde" unicode="&#xd5;" horiz-adv-x="556" 
d="M278 -14q-123 0 -179.5 89.5t-56.5 281.5t56.5 281.5t179.5 89.5t179.5 -89.5t56.5 -281.5t-56.5 -281.5t-179.5 -89.5zM278 72q28 0 48 11t38 40.5t27 88.5t9 148q0 87 -9 145t-27 86.5t-38 39.5t-48 11t-48 -11t-38 -39.5t-27 -86.5t-9 -145q0 -89 9 -148t27 -88.5
t38 -40.5t48 -11zM367 884h62q0 -39 -23.5 -78.5t-62.5 -39.5q-24 0 -65 17.5t-55 17.5q-16 0 -25 -12t-9 -28h-62q0 41 25.5 80.5t75.5 39.5q13 0 53 -17q38 -18 56 -18q30 0 30 38z" />
    <glyph glyph-name="Odieresis" unicode="&#xd6;" horiz-adv-x="556" 
d="M278 -14q-123 0 -179.5 89.5t-56.5 281.5t56.5 281.5t179.5 89.5t179.5 -89.5t56.5 -281.5t-56.5 -281.5t-179.5 -89.5zM278 72q28 0 48 11t38 40.5t27 88.5t9 148q0 87 -9 145t-27 86.5t-38 39.5t-48 11t-48 -11t-38 -39.5t-27 -86.5t-9 -145q0 -89 9 -148t27 -88.5
t38 -40.5t48 -11zM313 774v108h96v-108h-96zM147 774v108h96v-108h-96z" />
    <glyph glyph-name="multiply" unicode="&#xd7;" horiz-adv-x="600" 
d="M244 253l-174 174l56 56l173 -174l175 174l56 -56l-175 -174l175 -174l-56 -56l-175 175l-173 -175l-56 56z" />
    <glyph glyph-name="Oslash" unicode="&#xd8;" horiz-adv-x="556" 
d="M383 535l-180 -428q25 -35 75 -35q28 0 48 11t38 40.5t27 88.5t9 148q0 110 -15 175h-2zM174 179l180 428q-26 35 -76 35q-28 0 -48 -11t-38 -39.5t-27 -86.5t-9 -145q0 -114 16 -181h2zM136 -52l-51 24l33 78q-76 86 -76 307q0 192 56.5 281.5t179.5 89.5q68 0 115 -28
l27 65l51 -24l-33 -77q76 -86 76 -307q0 -192 -56.5 -281.5t-179.5 -89.5q-68 0 -114 28z" />
    <glyph glyph-name="Ugrave" unicode="&#xd9;" horiz-adv-x="537" 
d="M50 714h114v-512q0 -130 105 -130q104 0 104 130v512h114v-503q0 -119 -55.5 -172t-162.5 -53t-163 53t-56 172v503zM250 754l-106 144h120l60 -144h-74z" />
    <glyph glyph-name="Uacute" unicode="&#xda;" horiz-adv-x="537" 
d="M50 714h114v-512q0 -130 105 -130q104 0 104 130v512h114v-503q0 -119 -55.5 -172t-162.5 -53t-163 53t-56 172v503zM214 754l60 144h120l-106 -144h-74z" />
    <glyph glyph-name="Ucircumflex" unicode="&#xdb;" horiz-adv-x="537" 
d="M50 714h114v-512q0 -130 105 -130q104 0 104 130v512h114v-503q0 -119 -55.5 -172t-162.5 -53t-163 53t-56 172v503zM125 754l91 144h108l89 -144h-91l-54 88l-57 -88h-86z" />
    <glyph glyph-name="Udieresis" unicode="&#xdc;" horiz-adv-x="537" 
d="M50 714h114v-512q0 -130 105 -130q104 0 104 130v512h114v-503q0 -119 -55.5 -172t-162.5 -53t-163 53t-56 172v503zM304 774v108h96v-108h-96zM138 774v108h96v-108h-96z" />
    <glyph glyph-name="Yacute" unicode="&#xdd;" horiz-adv-x="481" 
d="M180 0v279l-184 435h127l120 -308l123 308h119l-191 -435v-279h-114zM186 754l60 144h120l-106 -144h-74z" />
    <glyph glyph-name="Thorn" unicode="&#xde;" horiz-adv-x="500" 
d="M173 492v-247h81q50 0 82 30t32 93q0 61 -28.5 92.5t-93.5 31.5h-73zM59 0v714h114v-136h112q99 0 148 -56t49 -152q0 -97 -55 -154t-154 -57h-100v-159h-114z" />
    <glyph glyph-name="germandbls" unicode="&#xdf;" horiz-adv-x="481" 
d="M209 -6v86h27q100 0 100 140q0 143 -99 143h-26v80h19q27 0 54 23t27 75q0 101 -80 101q-79 0 -79 -101v-541h-108v533q0 189 188 189q50 0 89.5 -13t68.5 -51.5t29 -99.5q0 -123 -100 -148v-2q71 -7 101 -59.5t30 -126.5q0 -105 -47 -166.5t-143 -61.5h-51z" />
    <glyph glyph-name="agrave" unicode="&#xe0;" horiz-adv-x="463" 
d="M405 420v-308q0 -15 8 -26.5t20 -11.5t18 3v-70q-28 -13 -53 -13q-87 0 -91 71h-2q-43 -79 -134 -79q-66 0 -103 38t-37 113q0 82 30 115t95 54l84 23q34 9 48.5 23t14.5 46q0 39 -16.5 59.5t-57.5 20.5q-49 0 -65.5 -27.5t-16.5 -75.5h-102q0 89 43 133t146 44
q77 0 124 -32t47 -100zM303 194v90q-16 -13 -64.5 -30t-55.5 -20q-44 -21 -44 -87q0 -36 17.5 -58.5t49.5 -22.5q48 0 72.5 33.5t24.5 94.5zM213 608l-106 144h120l60 -144h-74z" />
    <glyph glyph-name="aacute" unicode="&#xe1;" horiz-adv-x="463" 
d="M405 420v-308q0 -15 8 -26.5t20 -11.5t18 3v-70q-28 -13 -53 -13q-87 0 -91 71h-2q-43 -79 -134 -79q-66 0 -103 38t-37 113q0 82 30 115t95 54l84 23q34 9 48.5 23t14.5 46q0 39 -16.5 59.5t-57.5 20.5q-49 0 -65.5 -27.5t-16.5 -75.5h-102q0 89 43 133t146 44
q77 0 124 -32t47 -100zM303 194v90q-16 -13 -64.5 -30t-55.5 -20q-44 -21 -44 -87q0 -36 17.5 -58.5t49.5 -22.5q48 0 72.5 33.5t24.5 94.5zM177 608l60 144h120l-106 -144h-74z" />
    <glyph glyph-name="acircumflex" unicode="&#xe2;" horiz-adv-x="463" 
d="M405 420v-308q0 -15 8 -26.5t20 -11.5t18 3v-70q-28 -13 -53 -13q-87 0 -91 71h-2q-43 -79 -134 -79q-66 0 -103 38t-37 113q0 82 30 115t95 54l84 23q34 9 48.5 23t14.5 46q0 39 -16.5 59.5t-57.5 20.5q-49 0 -65.5 -27.5t-16.5 -75.5h-102q0 89 43 133t146 44
q77 0 124 -32t47 -100zM303 194v90q-16 -13 -64.5 -30t-55.5 -20q-44 -21 -44 -87q0 -36 17.5 -58.5t49.5 -22.5q48 0 72.5 33.5t24.5 94.5zM88 608l91 144h108l89 -144h-91l-54 88l-57 -88h-86z" />
    <glyph glyph-name="atilde" unicode="&#xe3;" horiz-adv-x="463" 
d="M405 420v-308q0 -15 8 -26.5t20 -11.5t18 3v-70q-28 -13 -53 -13q-87 0 -91 71h-2q-43 -79 -134 -79q-66 0 -103 38t-37 113q0 82 30 115t95 54l84 23q34 9 48.5 23t14.5 46q0 39 -16.5 59.5t-57.5 20.5q-49 0 -65.5 -27.5t-16.5 -75.5h-102q0 89 43 133t146 44
q77 0 124 -32t47 -100zM303 194v90q-16 -13 -64.5 -30t-55.5 -20q-44 -21 -44 -87q0 -36 17.5 -58.5t49.5 -22.5q48 0 72.5 33.5t24.5 94.5zM321 738h62q0 -39 -23.5 -78.5t-62.5 -39.5q-24 0 -65 17.5t-55 17.5q-16 0 -25 -12t-9 -28h-62q0 41 25.5 80.5t75.5 39.5
q13 0 53 -17q38 -18 56 -18q30 0 30 38z" />
    <glyph glyph-name="adieresis" unicode="&#xe4;" horiz-adv-x="463" 
d="M405 420v-308q0 -15 8 -26.5t20 -11.5t18 3v-70q-28 -13 -53 -13q-87 0 -91 71h-2q-43 -79 -134 -79q-66 0 -103 38t-37 113q0 82 30 115t95 54l84 23q34 9 48.5 23t14.5 46q0 39 -16.5 59.5t-57.5 20.5q-49 0 -65.5 -27.5t-16.5 -75.5h-102q0 89 43 133t146 44
q77 0 124 -32t47 -100zM303 194v90q-16 -13 -64.5 -30t-55.5 -20q-44 -21 -44 -87q0 -36 17.5 -58.5t49.5 -22.5q48 0 72.5 33.5t24.5 94.5zM267 628v108h96v-108h-96zM101 628v108h96v-108h-96z" />
    <glyph glyph-name="aring" unicode="&#xe5;" horiz-adv-x="463" 
d="M405 420v-308q0 -15 8 -26.5t20 -11.5t18 3v-70q-28 -13 -53 -13q-87 0 -91 71h-2q-43 -79 -134 -79q-66 0 -103 38t-37 113q0 82 30 115t95 54l84 23q34 9 48.5 23t14.5 46q0 39 -16.5 59.5t-57.5 20.5q-49 0 -65.5 -27.5t-16.5 -75.5h-102q0 89 43 133t146 44
q77 0 124 -32t47 -100zM303 194v90q-16 -13 -64.5 -30t-55.5 -20q-44 -21 -44 -87q0 -36 17.5 -58.5t49.5 -22.5q48 0 72.5 33.5t24.5 94.5zM176 699q0 -23 16.5 -39.5t39.5 -16.5t39.5 16.5t16.5 39.5t-16.5 39.5t-39.5 16.5t-39.5 -16.5t-16.5 -39.5zM126 699q0 44 31 75
t75 31t75 -31t31 -75t-31 -75t-75 -31t-75 31t-31 75z" />
    <glyph glyph-name="ae" unicode="&#xe6;" horiz-adv-x="704" 
d="M399 329h160v29q0 120 -78 120q-43 0 -62.5 -40.5t-19.5 -85.5v-23zM667 255h-269v-38q0 -153 79 -157q27 0 45.5 13.5t26.5 35t11 38.5t3 33h102q0 -89 -50.5 -141.5t-138.5 -52.5q-37 1 -64.5 10.5t-44 28t-23.5 30t-15 29.5q-20 -47 -58.5 -72.5t-86.5 -25.5
q-65 0 -109 38t-44 113q0 78 33.5 113t99.5 52l85 22q27 7 36.5 21.5t9.5 52.5q0 80 -66 80q-49 0 -65.5 -27.5t-16.5 -75.5h-102q0 89 43 133t146 44q98 0 126 -69q40 67 132 69q97 0 136 -60t39 -180v-57zM296 191v85q-13 -15 -78 -32q-50 -14 -64.5 -37.5t-14.5 -65.5
q0 -31 17 -53t46 -22q94 0 94 125z" />
    <glyph glyph-name="ccedilla" unicode="&#xe7;" horiz-adv-x="444" 
d="M164 -87l47 75q-68 4 -109 42.5t-56 96t-15 142.5q0 136 45 209.5t155 73.5q46 1 81 -13t54 -34.5t31 -48.5t15.5 -50.5t3.5 -46.5h-108q0 47 -17 80.5t-60 32.5q-54 0 -73 -51t-19 -152t19 -152t73 -51q43 -1 62.5 32.5t19.5 97.5h102q-5 -94 -40 -146.5t-114 -60.5
l-33 -46q25 5 40 5q33 0 55.5 -22t22.5 -52q0 -40 -33.5 -65t-83.5 -25q-56 0 -101 17l16 40q35 -13 66 -13q56 0 56 38q0 17 -13.5 27.5t-32.5 10.5q-11 0 -38 -8z" />
    <glyph glyph-name="egrave" unicode="&#xe8;" horiz-adv-x="463" 
d="M426 255h-281v-31q0 -32 3 -57t11.5 -51.5t27.5 -41t48 -14.5q27 0 45.5 13.5t26.5 35t11 38.5t3 33h102q0 -89 -50.5 -141.5t-138.5 -52.5q-31 0 -55 4.5t-52 21t-46.5 45t-31 80.5t-12.5 124q0 59 8 106t28 91.5t61.5 69t101.5 24.5q107 0 148.5 -59.5t41.5 -180.5v-57
zM145 329h173v29q0 120 -83 120q-48 0 -69 -39t-21 -99v-11zM225 608l-106 144h120l60 -144h-74z" />
    <glyph glyph-name="eacute" unicode="&#xe9;" horiz-adv-x="463" 
d="M426 255h-281v-31q0 -32 3 -57t11.5 -51.5t27.5 -41t48 -14.5q27 0 45.5 13.5t26.5 35t11 38.5t3 33h102q0 -89 -50.5 -141.5t-138.5 -52.5q-31 0 -55 4.5t-52 21t-46.5 45t-31 80.5t-12.5 124q0 59 8 106t28 91.5t61.5 69t101.5 24.5q107 0 148.5 -59.5t41.5 -180.5v-57
zM145 329h173v29q0 120 -83 120q-48 0 -69 -39t-21 -99v-11zM189 608l60 144h120l-106 -144h-74z" />
    <glyph glyph-name="ecircumflex" unicode="&#xea;" horiz-adv-x="463" 
d="M426 255h-281v-31q0 -32 3 -57t11.5 -51.5t27.5 -41t48 -14.5q27 0 45.5 13.5t26.5 35t11 38.5t3 33h102q0 -89 -50.5 -141.5t-138.5 -52.5q-31 0 -55 4.5t-52 21t-46.5 45t-31 80.5t-12.5 124q0 59 8 106t28 91.5t61.5 69t101.5 24.5q107 0 148.5 -59.5t41.5 -180.5v-57
zM145 329h173v29q0 120 -83 120q-48 0 -69 -39t-21 -99v-11zM100 608l91 144h108l89 -144h-91l-54 88l-57 -88h-86z" />
    <glyph glyph-name="edieresis" unicode="&#xeb;" horiz-adv-x="463" 
d="M426 255h-281v-31q0 -32 3 -57t11.5 -51.5t27.5 -41t48 -14.5q27 0 45.5 13.5t26.5 35t11 38.5t3 33h102q0 -89 -50.5 -141.5t-138.5 -52.5q-31 0 -55 4.5t-52 21t-46.5 45t-31 80.5t-12.5 124q0 59 8 106t28 91.5t61.5 69t101.5 24.5q107 0 148.5 -59.5t41.5 -180.5v-57
zM145 329h173v29q0 120 -83 120q-48 0 -69 -39t-21 -99v-11zM279 628v108h96v-108h-96zM113 628v108h96v-108h-96z" />
    <glyph glyph-name="igrave" unicode="&#xec;" 
d="M57 0v538h108v-538h-108zM92 608l-106 144h120l60 -144h-74z" />
    <glyph glyph-name="iacute" unicode="&#xed;" 
d="M57 0v538h108v-538h-108zM56 608l60 144h120l-106 -144h-74z" />
    <glyph glyph-name="icircumflex" unicode="&#xee;" 
d="M57 0v538h108v-538h-108zM-33 608l91 144h108l89 -144h-91l-54 88l-57 -88h-86z" />
    <glyph glyph-name="idieresis" unicode="&#xef;" 
d="M57 0v538h108v-538h-108zM146 628v108h96v-108h-96zM-20 628v108h96v-108h-96z" />
    <glyph glyph-name="eth" unicode="&#xf0;" horiz-adv-x="463" 
d="M139 269q0 -110 18.5 -156.5t73.5 -46.5q56 0 74.5 46.5t18.5 156.5q0 43 -3.5 74.5t-13 59t-28.5 41.5t-48 14q-28 0 -47 -14t-28.5 -41.5t-13 -59t-3.5 -74.5zM94 598l-36 36l86 47q-34 33 -64 52l79 43q25 -15 66 -51l91 49l32 -36l-86 -47q98 -93 134 -184.5
t36 -237.5q0 -283 -201 -283q-200 0 -200 283q0 269 184 269q52 0 82 -33l2 2q-45 68 -118 139z" />
    <glyph glyph-name="ntilde" unicode="&#xf1;" horiz-adv-x="481" 
d="M52 0v538h102v-63h3q20 36 56.5 56.5t81.5 20.5q65 0 99.5 -34t34.5 -112v-406h-108v369q0 52 -17 74.5t-58 22.5q-36 0 -61 -27.5t-25 -77.5v-361h-108zM330 738h62q0 -39 -23.5 -78.5t-62.5 -39.5q-24 0 -65 17.5t-55 17.5q-16 0 -25 -12t-9 -28h-62q0 41 25.5 80.5
t75.5 39.5q13 0 53 -17q38 -18 56 -18q30 0 30 38z" />
    <glyph glyph-name="ograve" unicode="&#xf2;" horiz-adv-x="463" 
d="M31 269q0 136 45 209.5t155 73.5q111 0 156 -73.5t45 -209.5q0 -283 -201 -283q-200 0 -200 283zM139 269q0 -110 18.5 -156.5t73.5 -46.5q56 0 74.5 46.5t18.5 156.5q0 101 -19 152t-74 51q-54 0 -73 -51t-19 -152zM213 608l-106 144h120l60 -144h-74z" />
    <glyph glyph-name="oacute" unicode="&#xf3;" horiz-adv-x="463" 
d="M31 269q0 136 45 209.5t155 73.5q111 0 156 -73.5t45 -209.5q0 -283 -201 -283q-200 0 -200 283zM139 269q0 -110 18.5 -156.5t73.5 -46.5q56 0 74.5 46.5t18.5 156.5q0 101 -19 152t-74 51q-54 0 -73 -51t-19 -152zM177 608l60 144h120l-106 -144h-74z" />
    <glyph glyph-name="ocircumflex" unicode="&#xf4;" horiz-adv-x="463" 
d="M31 269q0 136 45 209.5t155 73.5q111 0 156 -73.5t45 -209.5q0 -283 -201 -283q-200 0 -200 283zM139 269q0 -110 18.5 -156.5t73.5 -46.5q56 0 74.5 46.5t18.5 156.5q0 101 -19 152t-74 51q-54 0 -73 -51t-19 -152zM88 608l91 144h108l89 -144h-91l-54 88l-57 -88h-86z
" />
    <glyph glyph-name="otilde" unicode="&#xf5;" horiz-adv-x="463" 
d="M31 269q0 136 45 209.5t155 73.5q111 0 156 -73.5t45 -209.5q0 -283 -201 -283q-200 0 -200 283zM139 269q0 -110 18.5 -156.5t73.5 -46.5q56 0 74.5 46.5t18.5 156.5q0 101 -19 152t-74 51q-54 0 -73 -51t-19 -152zM321 738h62q0 -39 -23.5 -78.5t-62.5 -39.5
q-24 0 -65 17.5t-55 17.5q-16 0 -25 -12t-9 -28h-62q0 41 25.5 80.5t75.5 39.5q13 0 53 -17q38 -18 56 -18q30 0 30 38z" />
    <glyph glyph-name="odieresis" unicode="&#xf6;" horiz-adv-x="463" 
d="M31 269q0 136 45 209.5t155 73.5q111 0 156 -73.5t45 -209.5q0 -283 -201 -283q-200 0 -200 283zM139 269q0 -110 18.5 -156.5t73.5 -46.5q56 0 74.5 46.5t18.5 156.5q0 101 -19 152t-74 51q-54 0 -73 -51t-19 -152zM267 628v108h96v-108h-96zM101 628v108h96v-108h-96z
" />
    <glyph glyph-name="divide" unicode="&#xf7;" horiz-adv-x="600" 
d="M228 48q0 30 21 51t51 21t51 -21t21 -51t-21 -51t-51 -21t-51 21t-21 51zM47 210v86h506v-86h-506zM228 458q0 30 21 51t51 21t51 -21t21 -51t-21 -51t-51 -21t-51 21t-21 51z" />
    <glyph glyph-name="oslash" unicode="&#xf8;" horiz-adv-x="463" 
d="M148 153l138 297q-22 22 -55 22q-54 0 -73 -51t-19 -152q0 -70 7 -116h2zM314 386l-137 -298q20 -22 54 -22q55 0 74 51t19 152q0 73 -8 117h-2zM59 -36l35 74q-63 63 -63 231q0 136 45 209.5t155 73.5q55 0 93 -20l30 65l48 -26l-33 -70q63 -63 63 -232
q0 -136 -45 -209.5t-156 -73.5q-55 0 -93 19l-31 -67z" />
    <glyph glyph-name="ugrave" unicode="&#xf9;" horiz-adv-x="481" 
d="M327 0v63h-3q-20 -36 -56.5 -56.5t-81.5 -20.5q-65 0 -99.5 39t-34.5 137v376h108v-386q0 -43 18.5 -61.5t54.5 -18.5q37 0 62.5 23.5t25.5 66.5v376h108v-538h-102zM222 608l-106 144h120l60 -144h-74z" />
    <glyph glyph-name="uacute" unicode="&#xfa;" horiz-adv-x="481" 
d="M327 0v63h-3q-20 -36 -56.5 -56.5t-81.5 -20.5q-65 0 -99.5 39t-34.5 137v376h108v-386q0 -43 18.5 -61.5t54.5 -18.5q37 0 62.5 23.5t25.5 66.5v376h108v-538h-102zM186 608l60 144h120l-106 -144h-74z" />
    <glyph glyph-name="ucircumflex" unicode="&#xfb;" horiz-adv-x="481" 
d="M327 0v63h-3q-20 -36 -56.5 -56.5t-81.5 -20.5q-65 0 -99.5 39t-34.5 137v376h108v-386q0 -43 18.5 -61.5t54.5 -18.5q37 0 62.5 23.5t25.5 66.5v376h108v-538h-102zM97 608l91 144h108l89 -144h-91l-54 88l-57 -88h-86z" />
    <glyph glyph-name="udieresis" unicode="&#xfc;" horiz-adv-x="481" 
d="M327 0v63h-3q-20 -36 -56.5 -56.5t-81.5 -20.5q-65 0 -99.5 39t-34.5 137v376h108v-386q0 -43 18.5 -61.5t54.5 -18.5q37 0 62.5 23.5t25.5 66.5v376h108v-538h-102zM276 628v108h96v-108h-96zM110 628v108h96v-108h-96z" />
    <glyph glyph-name="yacute" unicode="&#xfd;" horiz-adv-x="426" 
d="M8 538h116l93 -404h2l86 404h113l-148 -558q-31 -107 -66.5 -136.5t-121.5 -27.5q-15 0 -43 4v86q24 -4 35 -4q30 0 47 9t26 33l14 44zM158 608l60 144h120l-106 -144h-74z" />
    <glyph glyph-name="thorn" unicode="&#xfe;" horiz-adv-x="481" 
d="M52 -176v890h108v-239h2q32 77 122 77q166 0 166 -290q0 -81 -15 -138t-41 -85.5t-52.5 -40.5t-57.5 -12q-90 0 -122 77h-2v-239h-108zM154 275q0 -105 19 -154t73 -49q48 0 69 43t21 152q0 100 -19 149.5t-72 49.5q-52 0 -71.5 -48t-19.5 -143z" />
    <glyph glyph-name="ydieresis" unicode="&#xff;" horiz-adv-x="426" 
d="M8 538h116l93 -404h2l86 404h113l-148 -558q-31 -107 -66.5 -136.5t-121.5 -27.5q-15 0 -43 4v86q24 -4 35 -4q30 0 47 9t26 33l14 44zM248 628v108h96v-108h-96zM82 628v108h96v-108h-96z" />
    <glyph glyph-name="dotlessi" unicode="&#x131;" 
d="M57 0v538h108v-538h-108z" />
    <glyph glyph-name="Lslash" unicode="&#x141;" horiz-adv-x="444" 
d="M46 0v261l-56 -39v98l56 39v355h114v-277l146 101v-98l-146 -101v-243h276v-96h-390z" />
    <glyph glyph-name="lslash" unicode="&#x142;" 
d="M57 0v286l-57 -40v96l57 40v332h108v-258l57 40v-96l-57 -40v-360h-108z" />
    <glyph glyph-name="OE" unicode="&#x152;" horiz-adv-x="796" 
d="M400 0v51h-2q-40 -65 -138 -65q-112 0 -165 89t-53 282q0 190 54.5 280.5t167.5 90.5q96 0 134 -58h2v44h354v-96h-254v-198h238v-96h-238v-228h262v-96h-362zM392 236v242q0 95 -27.5 129.5t-78.5 34.5q-25 0 -43 -6t-35.5 -24t-28 -49t-17 -82t-6.5 -121q0 -89 9 -148
t27 -88.5t38 -40.5t48 -11q56 0 85 34t29 130z" />
    <glyph glyph-name="oe" unicode="&#x153;" horiz-adv-x="722" 
d="M423 329h160v29q0 120 -78 120q-43 0 -62.5 -40.5t-19.5 -85.5v-23zM587 180h102q0 -89 -50.5 -141.5t-138.5 -52.5q-34 0 -61 10.5t-41 27t-20.5 27.5t-9.5 21q-42 -86 -148 -86q-103 0 -146 74t-43 209q0 66 9.5 115.5t31.5 88.5t60.5 59t94.5 20q35 0 61.5 -7.5
t43.5 -22t25 -25t18 -27.5q48 82 141 82q97 0 136 -60t39 -180v-57h-269v-38q0 -153 79 -157q27 0 45.5 13.5t26.5 35t11 38.5t3 33zM139 269q0 -49 3.5 -83t12.5 -62.5t27 -43t45 -14.5q55 0 74 51t19 152t-19 152t-74 51q-27 0 -45 -14.5t-27 -43t-12.5 -62.5t-3.5 -83z
" />
    <glyph glyph-name="Scaron" unicode="&#x160;" horiz-adv-x="519" 
d="M33 221h114v-18q0 -131 117 -131q51 0 79.5 30.5t28.5 73.5q0 54 -25.5 83t-76.5 44l-78 27q-79 30 -114 75t-35 121q0 96 60 149t162 53q52 0 91 -13t59.5 -31.5t33 -46t15.5 -49.5t3 -48v-16h-114v15q0 103 -100 103q-41 0 -68.5 -25t-27.5 -78q0 -45 24.5 -72
t82.5 -49l77 -28q76 -27 110.5 -71.5t34.5 -117.5q0 -215 -236 -215q-63 0 -108 19.5t-67.5 53t-32 69t-9.5 76.5v17zM205 754l-89 144h91l54 -88l57 88h86l-91 -144h-108z" />
    <glyph glyph-name="scaron" unicode="&#x161;" horiz-adv-x="426" 
d="M386 381h-102v14q0 83 -71 83q-35 0 -56 -17t-21 -53q0 -31 16 -47.5t60 -31.5l69 -24q61 -21 89 -56.5t28 -98.5q0 -82 -53 -123t-140 -41q-97 0 -137 42t-40 125v20h96v-17q0 -48 19.5 -72t64.5 -24q88 0 88 79q0 59 -59 79l-88 31q-62 21 -88.5 56t-26.5 99
q0 74 49 111t135 37q93 0 130.5 -43t37.5 -104v-24zM158 608l-89 144h91l54 -88l57 88h86l-91 -144h-108z" />
    <glyph glyph-name="Ydieresis" unicode="&#x178;" horiz-adv-x="481" 
d="M180 0v279l-184 435h127l120 -308l123 308h119l-191 -435v-279h-114zM276 774v108h96v-108h-96zM110 774v108h96v-108h-96z" />
    <glyph glyph-name="Zcaron" unicode="&#x17d;" horiz-adv-x="463" 
d="M18 0v90l299 528h-281v96h406v-96l-299 -522h302v-96h-427zM177 754l-89 144h91l54 -88l57 88h86l-91 -144h-108z" />
    <glyph glyph-name="zcaron" unicode="&#x17e;" horiz-adv-x="407" 
d="M25 0v84l235 363h-221v91h343v-89l-226 -358h226v-91h-357zM149 608l-89 144h91l54 -88l57 88h86l-91 -144h-108z" />
    <glyph glyph-name="florin" unicode="&#x192;" horiz-adv-x="480" 
d="M95 434h106l28 129q17 75 52 113t110 38q48 0 77 -8l-15 -76q-3 0 -10 1.5t-14 2t-14 0.5q-35 0 -56 -21t-32 -72l-24 -107h112l-11 -68h-114l-76 -371q-18 -89 -56 -130t-118 -41q-45 0 -66 6l17 78q17 -4 42 -4q37 0 52.5 18.5t25.5 64.5l77 379h-104z" />
    <glyph glyph-name="circumflex" unicode="&#x2c6;" 
d="M-33 608l91 144h108l89 -144h-91l-54 88l-57 -88h-86z" />
    <glyph glyph-name="caron" unicode="&#x2c7;" 
d="M56 608l-89 144h91l54 -88l57 88h86l-91 -144h-108z" />
    <glyph glyph-name="uni02C9" unicode="&#x2c9;" 
d="M-30 714h282v-62h-282v62z" />
    <glyph glyph-name="breve" unicode="&#x2d8;" 
d="M-22 743h62q0 -22 19.5 -44.5t51.5 -22.5t51.5 22.5t19.5 44.5h62q0 -58 -35.5 -96.5t-97.5 -38.5t-97.5 38.5t-35.5 96.5z" />
    <glyph glyph-name="dotaccent" unicode="&#x2d9;" 
d="M63 628v108h96v-108h-96z" />
    <glyph glyph-name="ring" unicode="&#x2da;" 
d="M55 699q0 -23 16.5 -39.5t39.5 -16.5t39.5 16.5t16.5 39.5t-16.5 39.5t-39.5 16.5t-39.5 -16.5t-16.5 -39.5zM5 699q0 44 31 75t75 31t75 -31t31 -75t-31 -75t-75 -31t-75 31t-31 75z" />
    <glyph glyph-name="ogonek" unicode="&#x2db;" 
d="M121 0h50q-67 -61 -67 -115q0 -27 15 -42t42 -15q21 0 44 7l6 -42q-35 -9 -78 -9q-49 0 -79 22t-30 67q0 36 27 70t70 57z" />
    <glyph glyph-name="tilde" unicode="&#x2dc;" 
d="M200 738h62q0 -39 -23.5 -78.5t-62.5 -39.5q-24 0 -65 17.5t-55 17.5q-16 0 -25 -12t-9 -28h-62q0 41 25.5 80.5t75.5 39.5q13 0 53 -17q38 -18 56 -18q30 0 30 38z" />
    <glyph glyph-name="hungarumlaut" unicode="&#x2dd;" 
d="M-64 608l60 144h120l-106 -144h-74zM136 608l60 144h120l-106 -144h-74z" />
    <glyph glyph-name="uni03A9" unicode="&#x3a9;" horiz-adv-x="608" 
d="M156 82v3q-47 53 -77.5 129.5t-30.5 167.5q0 140 73 232.5t186 92.5q115 0 182.5 -95.5t67.5 -222.5q0 -93 -32 -173.5t-77 -130.5v-3h121v-82h-217v60q46 37 77.5 116.5t31.5 190.5q-1 103 -41.5 178.5t-114.5 75.5q-73 0 -117 -72.5t-44 -185.5q0 -103 32 -185.5
t77 -117.5v-60h-218v82h121z" />
    <glyph glyph-name="uni03BC" unicode="&#x3bc;" horiz-adv-x="481" 
d="M52 -176v714h108v-369q0 -52 17 -74.5t58 -22.5q35 0 60.5 27.5t25.5 77.5v361h108v-538h-102v63h-3q-20 -36 -51 -56.5t-63 -20.5t-50 18v-180h-108z" />
    <glyph glyph-name="pi" unicode="&#x3c0;" horiz-adv-x="515" 
d="M492 435h-64v-295q0 -84 12 -140h-91q-15 30 -15 136v299h-133q-4 -99 -21 -230t-39 -205h-92q23 84 39.5 211.5t18.5 223.5q-58 0 -88 -10l-12 67q40 29 137 29h356z" />
    <glyph glyph-name="uni2010" unicode="&#x2010;" horiz-adv-x="352" 
d="M45 238v102h262v-102h-262z" />
    <glyph glyph-name="endash" unicode="&#x2013;" horiz-adv-x="500" 
d="M0 241v96h500v-96h-500z" />
    <glyph glyph-name="emdash" unicode="&#x2014;" horiz-adv-x="1000" 
d="M0 241v96h1000v-96h-1000z" />
    <glyph glyph-name="quoteleft" unicode="&#x2018;" horiz-adv-x="240" 
d="M63 428v132q0 64 26 103t88 51v-58q-50 -13 -50 -81v-15h50v-132h-114z" />
    <glyph glyph-name="quoteright" unicode="&#x2019;" horiz-adv-x="240" 
d="M63 582v132h114v-132q0 -64 -26 -103t-88 -51v58q50 13 50 81v15h-50z" />
    <glyph glyph-name="quotesinglbase" unicode="&#x201a;" horiz-adv-x="240" 
d="M63 0v132h114v-132q0 -64 -26 -103t-88 -51v58q50 13 50 81v15h-50z" />
    <glyph glyph-name="quotedblleft" unicode="&#x201c;" horiz-adv-x="426" 
d="M67 428v132q0 64 26 103t88 51v-58q-50 -13 -50 -81v-15h50v-132h-114zM245 428v132q0 64 26 103t88 51v-58q-50 -13 -50 -81v-15h50v-132h-114z" />
    <glyph glyph-name="quotedblright" unicode="&#x201d;" horiz-adv-x="426" 
d="M245 582v132h114v-132q0 -64 -26 -103t-88 -51v58q50 13 50 81v15h-50zM67 582v132h114v-132q0 -64 -26 -103t-88 -51v58q50 13 50 81v15h-50z" />
    <glyph glyph-name="quotedblbase" unicode="&#x201e;" horiz-adv-x="426" 
d="M245 0v132h114v-132q0 -64 -26 -103t-88 -51v58q50 13 50 81v15h-50zM67 0v132h114v-132q0 -64 -26 -103t-88 -51v58q50 13 50 81v15h-50z" />
    <glyph glyph-name="dagger" unicode="&#x2020;" horiz-adv-x="482" 
d="M187 512v202h108v-202h171v-91h-171v-563h-108v563h-171v91h171z" />
    <glyph glyph-name="daggerdbl" unicode="&#x2021;" horiz-adv-x="482" 
d="M187 519v195h108v-195h172v-86h-172v-290h172v-86h-172v-199h-108v199h-172v86h172v290h-172v86h172z" />
    <glyph glyph-name="bullet" unicode="&#x2022;" horiz-adv-x="500" 
d="M72 357q0 73 52 125.5t126 52.5t126 -52.5t52 -125.5t-52 -125.5t-126 -52.5t-126 52.5t-52 125.5z" />
    <glyph glyph-name="ellipsis" unicode="&#x2026;" horiz-adv-x="1000" 
d="M110 0v132h114v-132h-114zM443 0v132h114v-132h-114zM776 0v132h114v-132h-114z" />
    <glyph glyph-name="perthousand" unicode="&#x2030;" horiz-adv-x="1056" 
d="M894 308q-30 0 -40.5 -29t-10.5 -101t10.5 -101t40.5 -29t40.5 29t10.5 101t-10.5 101t-40.5 29zM486 708h77l-319 -722h-75zM162 646q-30 0 -40.5 -29t-10.5 -101t10.5 -101t40.5 -29t40.5 29t10.5 101t-10.5 101t-40.5 29zM894 370q65 0 101 -43.5t36 -148.5
t-36 -148.5t-101 -43.5t-101 43.5t-36 148.5t36 148.5t101 43.5zM162 708q65 0 101 -43.5t36 -148.5t-36 -148.5t-101 -43.5t-101 43.5t-36 148.5t36 148.5t101 43.5zM575 308q-30 0 -40.5 -29t-10.5 -101t10.5 -101t40.5 -29t40.5 29t10.5 101t-10.5 101t-40.5 29zM575 370
q65 0 101 -43.5t36 -148.5t-36 -148.5t-101 -43.5t-101 43.5t-36 148.5t36 148.5t101 43.5z" />
    <glyph glyph-name="guilsinglleft" unicode="&#x2039;" horiz-adv-x="240" 
d="M48 232v114l144 135v-110l-88 -82l88 -82v-110z" />
    <glyph glyph-name="guilsinglright" unicode="&#x203a;" horiz-adv-x="240" 
d="M192 346v-114l-144 -135v110l88 82l-88 82v110z" />
    <glyph glyph-name="fraction" unicode="&#x2044;" horiz-adv-x="167" 
d="M-164 -31l421 756h74l-421 -756h-74z" />
    <glyph glyph-name="Euro" unicode="&#x20ac;" horiz-adv-x="480" 
d="M480 639l-34 -92q-17 37 -52 59q-34 22 -80 22q-52 0 -81 -33q-38 -43 -44 -142h224l-24 -68h-204q-2 -33 0 -70h185l-24 -68h-157q3 -100 44 -146q31 -35 83 -35q44 0 85 21q40 20 63 57v-110q-21 -18 -46 -28q-46 -20 -104 -20q-95 0 -150 43q-82 66 -89 218h-75l24 68
h47q-2 37 0 70h-71l24 68h51q9 150 89 212q55 43 147 43q60 0 104 -19q38 -17 65 -50z" />
    <glyph glyph-name="afii61289" unicode="&#x2113;" horiz-adv-x="438" 
d="M382 154l40 -39q-60 -125 -171 -125q-78 0 -115.5 49t-40.5 128v13q-3 -3 -21 -18.5t-27 -23.5l-25 53q64 60 73 69v265q0 121 42.5 180t106.5 59q56 0 85.5 -45.5t29.5 -120.5q0 -161 -173 -349l1 -46q0 -69 23 -102t61 -33q61 0 111 86zM186 519v-175q115 145 115 258
q0 89 -53 89q-26 0 -44 -40.5t-18 -131.5z" />
    <glyph glyph-name="trademark" unicode="&#x2122;" horiz-adv-x="1000" 
d="M155 302v344h-123v68h332v-68h-123v-344h-86zM828 302v326h-2l-121 -326h-56l-121 326h-2v-326h-80v412h119l112 -292l112 292h119v-412h-80z" />
    <glyph glyph-name="Omega" unicode="&#x2126;" horiz-adv-x="608" 
d="M156 82v3q-47 53 -77.5 129.5t-30.5 167.5q0 140 73 232.5t186 92.5q115 0 182.5 -95.5t67.5 -222.5q0 -93 -32 -173.5t-77 -130.5v-3h121v-82h-217v60q46 37 77.5 116.5t31.5 190.5q-1 103 -41.5 178.5t-114.5 75.5q-73 0 -117 -72.5t-44 -185.5q0 -103 32 -185.5
t77 -117.5v-60h-218v82h121z" />
    <glyph glyph-name="estimated" unicode="&#x212e;" horiz-adv-x="870" 
d="M836 337h-650q-5 0 -5 -4v-197q0 -13 9 -22q104 -107 245 -107q76 0 143 32t116 87h57q-54 -64 -138 -101.5t-179 -37.5q-166 0 -283 105.5t-117 254.5t117 255t283 106t284 -106t118 -255v-10zM688 363v197q0 14 -9 24q-104 102 -244 102t-244 -106q-10 -9 -10 -24v-193
q0 -7 5 -7h498q4 0 4 7z" />
    <glyph glyph-name="partialdiff" unicode="&#x2202;" horiz-adv-x="496" 
d="M92 653l-27 76q65 54 153 54q98 0 165.5 -95.5t67.5 -279.5q0 -194 -62.5 -305.5t-176.5 -111.5q-82 0 -128.5 68t-46.5 163q0 117 56 188.5t134 71.5q47 0 81 -24t48 -51h1q1 9 1 36q0 107 -43.5 182t-108.5 75q-61 0 -114 -47zM221 75h1q51 0 85 71.5t42 168.5
q-10 32 -38 59t-67 27q-48 0 -80.5 -54.5t-32.5 -128.5q0 -63 24.5 -103t65.5 -40z" />
    <glyph glyph-name="Delta" unicode="&#x2206;" horiz-adv-x="567" 
d="M26 0v61l205 651h111l198 -649v-63h-514zM122 81h319l-104 326q-6 22 -26.5 89t-26.5 93h-3q-4 -23 -23.5 -85.5t-24.5 -83.5z" />
    <glyph glyph-name="product" unicode="&#x220f;" horiz-adv-x="626" 
d="M601 605h-89v-701h-95v701h-209v-701h-95v701h-89v91h577v-91z" />
    <glyph glyph-name="summation" unicode="&#x2211;" horiz-adv-x="487" 
d="M468 -96h-446v67l222 330l-214 325v70h423v-84h-297v-3l194 -290l-215 -318v-3h333v-94z" />
    <glyph glyph-name="minus" unicode="&#x2212;" horiz-adv-x="600" 
d="M47 210v86h506v-86h-506z" />
    <glyph glyph-name="uni2215" unicode="&#x2215;" horiz-adv-x="167" 
d="M-164 -31l421 756h74l-421 -756h-74z" />
    <glyph glyph-name="uni2219" unicode="&#x2219;" horiz-adv-x="240" 
d="M48 308q0 30 21 51t51 21t51 -21t21 -51t-21 -51t-51 -21t-51 21t-21 51z" />
    <glyph glyph-name="radical" unicode="&#x221a;" horiz-adv-x="520" 
d="M520 834l-195 -976h-79l-133 448l-66 -25l-16 58l141 56l96 -328q8 -40 17 -84l1 -1q0 3 4.5 35.5t8.5 52.5l154 764h67z" />
    <glyph glyph-name="infinity" unicode="&#x221e;" horiz-adv-x="717" 
d="M671 289v-1q0 -70 -43 -113t-102 -43q-43 0 -81.5 24.5t-84.5 82.5q-43 -52 -82.5 -79.5t-90.5 -27.5q-58 0 -100 43.5t-42 108.5q0 67 42 110.5t107 43.5q84 0 168 -105q52 58 80 77q42 28 90 28q61 0 100 -41.5t39 -107.5zM195 189h1q26 0 52.5 16.5t39.5 30.5t40 45
q-27 36 -40.5 52t-41 33t-56.5 17q-41 0 -64 -28t-23 -72q0 -39 26.5 -66.5t65.5 -27.5zM526 383h-1q-17 0 -33 -6t-31.5 -19t-25 -22.5t-25 -27t-19.5 -21.5q47 -56 75 -77t62 -21q39 0 62 29.5t23 65.5q0 45 -24 72t-63 27z" />
    <glyph glyph-name="integral" unicode="&#x222b;" horiz-adv-x="352" 
d="M329 845l-12 -70q-14 8 -31 8q-28 0 -45 -24q-26 -36 -26 -173q0 -78 6 -240t6 -250q0 -139 -36 -201q-31 -61 -107 -61q-39 0 -63 15l14 72q27 -10 37 -10q25 0 40 22q26 37 26 162q0 88 -6.5 253.5t-6.5 246.5q0 86 12 136t40 82q36 43 99 43q29 0 53 -11z" />
    <glyph glyph-name="approxequal" unicode="&#x2248;" horiz-adv-x="492" 
d="M418 431l36 -31q-43 -95 -118 -95q-39 0 -101 37q-50 32 -79 32q-27 0 -45 -17.5t-38 -50.5l-37 30q20 43 53.5 69t72.5 26q13 0 24.5 -2t23 -7t18 -8.5t18 -10.5t14.5 -8q3 -2 12 -7.5t12 -7t10.5 -5.5t11.5 -5.5t10 -4t11 -3t11 -0.5q25 0 43 17t37 52zM418 265l36 -31
q-43 -95 -118 -95q-40 0 -101 37q-51 33 -79 33q-19 0 -35.5 -11.5t-25 -23.5t-22.5 -34l-37 30q20 43 53.5 69t72.5 26q16 0 32.5 -4.5t23.5 -7.5t24 -13l17 -10l20 -12t21 -12t17.5 -6.5t21.5 -3.5q24 0 42 17t37 52z" />
    <glyph glyph-name="notequal" unicode="&#x2260;" horiz-adv-x="492" 
d="M357 491l-36 -85h126v-59h-148l-55 -129h203v-59h-225l-45 -104l-46 18l38 86h-125v59h147l55 129h-202v59h223l44 103z" />
    <glyph glyph-name="lessequal" unicode="&#x2264;" horiz-adv-x="492" 
d="M445 102l-396 211v63l395 211v-71l-337 -170v-2l338 -171v-71zM448 3h-403v61h403v-61z" />
    <glyph glyph-name="greaterequal" unicode="&#x2265;" horiz-adv-x="492" 
d="M51 587l395 -211v-63l-395 -211v71l337 170v2l-337 171v71zM448 3h-402v61h402v-61z" />
    <glyph glyph-name="lozenge" unicode="&#x25ca;" horiz-adv-x="520" 
d="M473 348l-176 -391h-79l-171 391l176 391h79zM387 345l-108 248q-10 33 -17 61h-3q-9 -39 -17 -61l-109 -243l109 -251q11 -34 15 -58h4q8 36 16 56z" />
    <glyph glyph-name="fi" unicode="&#xfb01;" horiz-adv-x="500" 
d="M335 0v538h108v-538h-108zM335 614v108h108v-108h-108zM85 0v458h-75v80h75v50q0 74 34 104t103 30q35 0 59 -3v-83h-30q-58 0 -58 -51v-47h88v-80h-88v-458h-108z" />
    <glyph glyph-name="fl" unicode="&#xfb02;" horiz-adv-x="500" 
d="M335 0v714h108v-714h-108zM85 0v458h-75v80h75v50q0 74 34 104t103 30q35 0 59 -3v-83h-30q-58 0 -58 -51v-47h88v-80h-88v-458h-108z" />
    <glyph glyph-name="a.superior" horiz-adv-x="316" 
d="M8 457q0 51 21 71t71 33l52 13q24 6 34.5 14t10.5 28q0 36 -46 36q-53 0 -53 -50h-74q0 54 30.5 80t105.5 26q117 0 117 -79v-177q0 -23 17 -23q6 0 14 2v-57q-32 -7 -41 -7q-59 0 -62 47h-3q-31 -47 -96 -47q-98 0 -98 90zM197 490v57q-10 -7 -40.5 -17t-37.5 -14
q-25 -12 -25 -51q0 -14 11.5 -25t30.5 -11q27 0 44 17t17 44z" />
    <glyph glyph-name="o.superior" horiz-adv-x="316" 
d="M158 367q-79 0 -111.5 44t-32.5 125q0 84 32.5 128t111.5 44t111.5 -44t32.5 -128q0 -81 -32.5 -125t-111.5 -44zM158 429q58 0 58 107q0 52 -12 81t-46 29t-46 -29t-12 -81q0 -107 58 -107z" />
    <glyph glyph-name="one.superior" horiz-adv-x="313" 
d="M130 280v305h-90v56h7q94 0 109 59v8h60v-428h-86z" />
    <glyph glyph-name="two.superior" horiz-adv-x="313" 
d="M292 348v-68h-276q0 55 20 96t48.5 64.5t57 43.5t48.5 45.5t20 58.5q0 58 -51 58q-56 0 -56 -76h-86q0 138 143 138q136 0 136 -114q0 -38 -15.5 -67.5t-40 -49.5t-50 -37.5t-49.5 -41t-34 -50.5h185z" />
    <glyph glyph-name="three.superior" horiz-adv-x="313" 
d="M116 471v62h27q32 0 47.5 17.5t15.5 41.5q0 21 -13 37.5t-37 16.5q-27 0 -40 -19t-13 -42h-86q0 59 39 91t106 32q52 0 91 -27.5t39 -80.5q0 -33 -23.5 -61t-56.5 -33v-2q40 -2 65.5 -28.5t25.5 -70.5q0 -62 -41.5 -97t-106.5 -35q-74 0 -109.5 30.5t-35.5 96.5h86
q0 -23 14 -44t45 -21t46.5 20.5t15.5 50.5q0 65 -71 65h-30z" />
    </font>
</defs>
</svg>
